<?xml version="1.0" encoding="UTF-8" standalone="no"?>
<!-- Created with Inkscape (http://www.inkscape.org/) -->

<svg
   width="1080"
   height="1080"
   viewBox="0 0 285.74999 285.75001"
   version="1.1"
   id="svg1119"
   inkscape:export-filename="C:\1- Works\Clients\InnsDrive\final\InssDrive Logo.jpg"
   inkscape:export-xdpi="90"
   inkscape:export-ydpi="90"
   inkscape:version="1.1.2 (b8e25be833, 2022-02-05)"
   sodipodi:docname="InssDrive Logo.svg"
   xmlns:inkscape="http://www.inkscape.org/namespaces/inkscape"
   xmlns:sodipodi="http://sodipodi.sourceforge.net/DTD/sodipodi-0.dtd"
   xmlns="http://www.w3.org/2000/svg"
   xmlns:svg="http://www.w3.org/2000/svg">
  <sodipodi:namedview
     id="namedview1121"
     pagecolor="#505050"
     bordercolor="#eeeeee"
     borderopacity="1"
     inkscape:pageshadow="0"
     inkscape:pageopacity="0"
     inkscape:pagecheckerboard="0"
     inkscape:document-units="px"
     showgrid="false"
     units="px"
     inkscape:zoom="0.10645693"
     inkscape:cx="4715.522"
     inkscape:cy="1723.7018"
     inkscape:window-width="1920"
     inkscape:window-height="1057"
     inkscape:window-x="-8"
     inkscape:window-y="-8"
     inkscape:window-maximized="1"
     inkscape:current-layer="layer1"
     inkscape:snap-global="true"
     showguides="true"
     inkscape:guide-bbox="true" />
  <defs
     id="defs1116" />
  <g
     inkscape:label="Layer 1"
     inkscape:groupmode="layer"
     id="layer1">
    <rect
       style="fill:#ffffff;stroke-width:46.7268;stroke-linecap:round;paint-order:stroke fill markers"
       id="rect1202"
       width="285.75"
       height="285.75"
       x="-1.9895197e-13"
       y="-2.0605739e-13"
       sodipodi:insensitive="true" />
    <g
       id="g27110"
       style="fill:#f16320;fill-opacity:1"
       transform="matrix(1.1608914,0,0,1.1608914,-141.83232,-40.96246)">
      <path
         d="m 143.13636,141.30927 h 7.62615 v 26.96113 h -7.62615 z"
         id="path27102"
         style="font-weight:800;font-size:38.5159px;line-height:1.25;font-family:Montserrat;-inkscape-font-specification:'Montserrat, Ultra-Bold';letter-spacing:2.13452px;fill:#f16320;fill-opacity:1;stroke-width:4.81448" />
      <path
         d="m 171.57727,147.04814 q 3.8901,0 6.23957,2.31095 2.38799,2.31096 2.38799,6.97138 v 11.93993 h -7.31802 v -10.74594 q 0,-4.27526 -3.42792,-4.27526 -1.88728,0 -3.04275,1.23251 -1.11697,1.23251 -1.11697,3.69753 v 10.09116 h -7.31802 v -20.87562 h 6.97138 v 2.27244 q 1.23251,-1.27102 2.92721,-1.92579 1.6947,-0.69329 3.69753,-0.69329 z"
         id="path27104"
         style="font-weight:800;font-size:38.5159px;line-height:1.25;font-family:Montserrat;-inkscape-font-specification:'Montserrat, Ultra-Bold';letter-spacing:2.13452px;fill:#f16320;fill-opacity:1;stroke-width:4.81448" />
      <path
         d="m 194.51034,168.61704 q -2.61908,0 -5.16113,-0.57773 -2.54205,-0.61626 -4.08269,-1.57916 l 2.19541,-5.00706 q 1.42509,0.88586 3.3894,1.42509 1.96431,0.5007 3.89011,0.5007 1.77173,0 2.50353,-0.34664 0.77032,-0.38516 0.77032,-1.07845 0,-0.69328 -0.92438,-0.96289 -0.88587,-0.30813 -2.85018,-0.57774 -2.50353,-0.30813 -4.27527,-0.80884 -1.73321,-0.5007 -3.00424,-1.84876 -1.27102,-1.34806 -1.27102,-3.77456 0,-2.00282 1.19399,-3.54346 1.194,-1.57915 3.46643,-2.46502 2.31096,-0.92438 5.50778,-0.92438 2.27244,0 4.50636,0.46219 2.23392,0.46219 3.73604,1.30954 l -2.19541,4.96855 q -2.77314,-1.54063 -6.00848,-1.54063 -1.73321,0 -2.54205,0.42367 -0.80883,0.38516 -0.80883,1.03993 0,0.7318 0.88587,1.03993 0.88586,0.26961 2.9272,0.57774 2.58057,0.38516 4.27527,0.88586 1.6947,0.50071 2.92721,1.84877 1.27102,1.30954 1.27102,3.69752 0,1.96431 -1.19399,3.54347 -1.19399,1.54063 -3.54346,2.4265 -2.31096,0.88586 -5.58481,0.88586 z"
         id="path27106"
         style="font-weight:800;font-size:38.5159px;line-height:1.25;font-family:Montserrat;-inkscape-font-specification:'Montserrat, Ultra-Bold';letter-spacing:2.13452px;fill:#f16320;fill-opacity:1;stroke-width:4.81448" />
      <path
         d="m 217.71309,168.61704 q -2.61908,0 -5.16113,-0.57773 -2.54205,-0.61626 -4.08269,-1.57916 l 2.19541,-5.00706 q 1.42509,0.88586 3.3894,1.42509 1.96431,0.5007 3.8901,0.5007 1.77173,0 2.50354,-0.34664 0.77031,-0.38516 0.77031,-1.07845 0,-0.69328 -0.92438,-0.96289 -0.88586,-0.30813 -2.85017,-0.57774 -2.50354,-0.30813 -4.27527,-0.80884 -1.73321,-0.5007 -3.00424,-1.84876 -1.27102,-1.34806 -1.27102,-3.77456 0,-2.00282 1.19399,-3.54346 1.19399,-1.57915 3.46643,-2.46502 2.31095,-0.92438 5.50777,-0.92438 2.27244,0 4.50636,0.46219 2.23393,0.46219 3.73605,1.30954 l -2.19541,4.96855 q -2.77314,-1.54063 -6.00848,-1.54063 -1.73322,0 -2.54205,0.42367 -0.80883,0.38516 -0.80883,1.03993 0,0.7318 0.88586,1.03993 0.88587,0.26961 2.92721,0.57774 2.58057,0.38516 4.27527,0.88586 1.6947,0.50071 2.9272,1.84877 1.27103,1.30954 1.27103,3.69752 0,1.96431 -1.19399,3.54347 -1.194,1.54063 -3.54347,2.4265 -2.31095,0.88586 -5.5848,0.88586 z"
         id="path27108"
         style="font-weight:800;font-size:38.5159px;line-height:1.25;font-family:Montserrat;-inkscape-font-specification:'Montserrat, Ultra-Bold';letter-spacing:2.13452px;fill:#f16320;fill-opacity:1;stroke-width:4.81448" />
    </g>
    <g
       id="g27122"
       style="fill:#00508f;fill-opacity:1"
       transform="matrix(0.78524953,0,0,0.78524953,-56.578385,24.415343)">
      <path
         d="m 236.88929,125.65039 h 18.84742 c 4.36547,0 8.23744,0.81615 11.61593,2.44845 3.37849,1.63231 5.99777,3.94791 7.85784,6.94679 1.86007,2.99889 2.79011,6.51024 2.79011,10.53407 0,4.02381 -0.93004,7.53516 -2.79011,10.53405 -1.86007,2.99888 -4.47935,5.31448 -7.85784,6.94679 -3.37849,1.6323 -7.25046,2.44845 -11.61593,2.44845 h -18.84742 z"
         id="path27112"
         style="font-weight:800;font-size:38.5159px;line-height:1.25;font-family:Montserrat;-inkscape-font-specification:'Montserrat, Ultra-Bold';letter-spacing:2.13452px;fill:#00508f;fill-opacity:1;stroke-width:7.1176"
         sodipodi:nodetypes="cssssssscc" />
      <path
         d="m 296.87188,138.34821 q 1.6513,-2.10681 4.27057,-3.13176 2.67621,-1.08187 6.09267,-1.08187 v 9.73689 q -1.48047,-0.17083 -2.44846,-0.17083 -3.4734,0 -5.46632,1.87906 -1.93598,1.87904 -1.93598,5.75102 v 14.17827 H 286.5656 v -30.86195 h 10.30628 z"
         id="path27114"
         style="font-weight:800;font-size:38.5159px;line-height:1.25;font-family:Montserrat;-inkscape-font-specification:'Montserrat, Ultra-Bold';letter-spacing:2.13452px;fill:#00508f;fill-opacity:1;stroke-width:7.1176" />
      <path
         d="m 314.83212,134.64704 h 10.81876 v 30.86195 h -10.81876 z m 5.40938,-3.41644 q -2.96092,0 -4.78303,-1.65128 -1.8221,-1.65129 -1.8221,-4.09975 0,-2.44845 1.8221,-4.09974 1.82211,-1.65128 4.78303,-1.65128 2.96093,0 4.78304,1.59434 1.8221,1.5374 1.8221,3.98587 0,2.56233 -1.8221,4.27056 -1.82211,1.65128 -4.78304,1.65128 z"
         id="path27116"
         style="font-weight:800;font-size:38.5159px;line-height:1.25;font-family:Montserrat;-inkscape-font-specification:'Montserrat, Ultra-Bold';letter-spacing:2.13452px;fill:#00508f;fill-opacity:1;stroke-width:7.1176" />
      <path
         d="m 368.32344,134.64704 -12.75476,30.86195 h -11.1604 l -12.69781,-30.86195 h 11.10346 l 7.40232,18.84744 7.8009,-18.84744 z"
         id="path27118"
         style="font-weight:800;font-size:38.5159px;line-height:1.25;font-family:Montserrat;-inkscape-font-specification:'Montserrat, Ultra-Bold';letter-spacing:2.13452px;fill:#00508f;fill-opacity:1;stroke-width:7.1176" />
      <path
         d="m 404.96036,150.13496 q 0,0.11384 -0.17083,2.67623 h -22.4347 q 0.68329,2.3915 2.61929,3.70115 1.99292,1.2527 4.95385,1.2527 2.22069,0 3.81503,-0.62636 1.65129,-0.62634 3.30258,-2.04987 l 5.69408,5.92185 q -4.49833,5.01079 -13.15334,5.01079 -5.40938,0 -9.50912,-2.04987 -4.09975,-2.04986 -6.37737,-5.69408 -2.2207,-3.64422 -2.2207,-8.25642 0,-4.55528 2.16375,-8.14255 2.22069,-3.6442 6.09267,-5.69408 3.87198,-2.04987 8.71196,-2.04987 4.6122,0 8.3703,1.93599 3.75809,1.87906 5.92185,5.52326 2.2207,3.58727 2.2207,8.54113 z m -16.45592,-8.31336 q -2.5054,0 -4.21363,1.42351 -1.65128,1.42353 -2.10679,3.87199 h 12.64086 q -0.45553,-2.44846 -2.16376,-3.87199 -1.65128,-1.42351 -4.15668,-1.42351 z"
         id="path27120"
         style="font-weight:800;font-size:38.5159px;line-height:1.25;font-family:Montserrat;-inkscape-font-specification:'Montserrat, Ultra-Bold';letter-spacing:2.13452px;fill:#00508f;fill-opacity:1;stroke-width:7.1176" />
    </g>
    <path
       id="path27124"
       style="fill:#ffffff;fill-opacity:1;stroke:none;stroke-width:0.163827px;stroke-linecap:butt;stroke-linejoin:miter;stroke-opacity:1"
       d="m 143.4888,126.0297 c -0.96721,-0.0501 -1.77636,-0.24236 -2.6583,1.49175 l -0.002,-4.9e-4 c 0.005,0.0369 -0.29313,0.002 -1.00973,-0.0921 -2.42882,-0.31729 -5.18003,0.19961 -6.58221,1.23697 -0.92421,0.68375 -1.37012,1.64289 -1.34373,2.89064 0.0969,4.58471 4.85962,9.95471 8.09605,9.12841 0.64279,-0.16411 0.88064,-0.35328 1.06202,-1.29251 0.18146,-0.93962 0.43797,-1.71598 0.62494,-4.1708 0.18254,-2.3965 0.27275,-3.0097 0.4218,-2.86717 0.35133,0.33599 0.4052,1.68673 0.19564,3.21153 -0.16718,1.21635 -0.16334,1.66254 0.0204,2.27 0.4279,1.41416 1.72376,2.19928 3.30424,2.00194 l 0.82914,-0.10347 0.79919,0.82 c 1.06244,1.09035 2.2628,1.9212 3.68384,2.54927 1.6428,0.7261 4.03669,0.91431 5.85296,0.46045 l 1.25415,-0.31341 -1.75734,-0.24305 c -2.0298,-0.28053 -3.7443,-0.88012 -4.70279,-1.64516 -0.10736,-0.0857 -0.18377,-0.15712 -0.272,-0.23426 0.69085,0.2648 1.36301,0.43315 1.99951,0.53232 l 0.006,0.003 -2.2e-4,-0.002 c 2.7767,0.43106 4.87307,-0.45965 4.87307,-0.45965 -2.57751,-0.26885 -4.15875,-0.70178 -5.11115,-1.08526 -0.0425,-0.27634 -0.0598,-0.38702 -0.10644,-0.69168 -0.38162,-2.49082 -0.68141,-3.19591 -1.14332,-4.52174 -0.89583,-2.17452 -2.7183,-6.87969 -8.33276,-8.87352 z m 4.31421,7.47385 c 0.0673,0.004 0.13596,0.0159 0.19828,0.0357 0.22161,0.069 0.44478,0.25739 0.40319,0.39091 -0.0416,0.13349 -0.33222,0.16154 -0.55383,0.0925 -0.22162,-0.0691 -0.45472,-0.26043 -0.41311,-0.39393 0.0299,-0.096 0.19354,-0.13591 0.36548,-0.12516 z m 1.67972,9.64008 c -0.0262,-0.002 -0.0499,-4.1e-4 -0.0771,-0.002 -0.0652,-0.004 -0.0842,0.028 -0.064,0.0943 1.37092,2.95546 0.70273,7.87193 -2.6327,6.21438 -1.70833,-0.84897 -0.36606,-3.23139 -0.60982,-3.45023 -0.23229,-0.20234 -0.79016,-0.39502 -0.95441,-0.42844 -0.51998,-0.10578 -0.88362,0.69518 -0.91206,2.07996 -0.0809,3.85665 3.34586,4.7342 5.33808,4.1685 2.841,-0.82391 3.53729,-2.77425 3.77765,-6.15427 l 0.0799,-1.12387 -1.28806,-0.36329 c -0.7083,-0.19978 -1.68645,-0.58133 -2.17388,-0.84783 -0.30071,-0.1644 -0.40459,-0.18468 -0.48358,-0.18752 z"
       sodipodi:nodetypes="ccccsssssssccccssccsccccccscccscssssscccscsccscsscc" />
    <g
       id="g5488"
       transform="translate(0,-6.2671308)">
      <path
         d="m 129.46443,165.84682 h 2.80963 q 0.95039,0 1.44896,0.14542 0.66995,0.19735 1.14774,0.70111 0.4778,0.50376 0.72708,1.23603 0.24928,0.72708 0.24928,1.79692 0,0.94 -0.2337,1.62034 -0.28564,0.83095 -0.81536,1.34509 -0.3999,0.38951 -1.08023,0.60763 -0.50896,0.161 -1.36068,0.161 h -2.89272 z m 1.53724,1.28797 v 5.0428 h 1.14775 q 0.64398,0 0.92962,-0.0727 0.37392,-0.0935 0.61801,-0.3168 0.24929,-0.22332 0.40509,-0.73227 0.1558,-0.51415 0.1558,-1.39703 0,-0.88288 -0.1558,-1.35548 -0.1558,-0.4726 -0.43625,-0.73746 -0.28044,-0.26486 -0.71149,-0.35835 -0.322,-0.0727 -1.262,-0.0727 z"
         id="path5359"
         style="font-weight:bold;font-size:10.6361px;line-height:1.25;font-family:Arial;-inkscape-font-specification:'Arial, Bold';letter-spacing:1.43368px;fill:#333333;stroke-width:1.3295" />
      <path
         d="m 139.97099,173.46036 h -1.45935 v -5.5154 h 1.35548 v 0.7842 q 0.34796,-0.55569 0.62321,-0.73227 0.28044,-0.17657 0.6336,-0.17657 0.49856,0 0.96078,0.27525 l -0.45183,1.27238 q -0.36873,-0.23889 -0.68553,-0.23889 -0.30641,0 -0.51934,0.17138 -0.21293,0.16619 -0.33757,0.60763 -0.11945,0.44144 -0.11945,1.84885 z"
         id="path5361"
         style="font-weight:bold;font-size:10.6361px;line-height:1.25;font-family:Arial;-inkscape-font-specification:'Arial, Bold';letter-spacing:1.43368px;fill:#333333;stroke-width:1.3295" />
      <path
         d="m 144.14679,167.19711 v -1.35029 h 1.45935 v 1.35029 z m 0,6.26325 v -5.5154 h 1.45935 v 5.5154 z"
         id="path5363"
         style="font-weight:bold;font-size:10.6361px;line-height:1.25;font-family:Arial;-inkscape-font-specification:'Arial, Bold';letter-spacing:1.43368px;fill:#333333;stroke-width:1.3295" />
      <path
         d="m 150.05199,173.46036 -2.22278,-5.5154 h 1.53206 l 1.03868,2.81483 0.30122,0.94 q 0.11945,-0.35834 0.15061,-0.4726 0.0727,-0.2337 0.1558,-0.4674 l 1.04907,-2.81483 h 1.50089 l -2.19161,5.5154 z"
         id="path5365"
         style="font-weight:bold;font-size:10.6361px;line-height:1.25;font-family:Arial;-inkscape-font-specification:'Arial, Bold';letter-spacing:1.43368px;fill:#333333;stroke-width:1.3295" />
      <path
         d="m 159.07844,171.70499 1.45415,0.24409 q -0.28044,0.79978 -0.88807,1.22045 -0.60244,0.41547 -1.51128,0.41547 -1.43858,0 -2.1293,-0.94001 -0.54531,-0.75304 -0.54531,-1.90078 0,-1.37106 0.71669,-2.14488 0.71669,-0.77901 1.8125,-0.77901 1.23084,0 1.94234,0.81536 0.71149,0.81017 0.68033,2.48764 h -3.65616 q 0.0156,0.64918 0.35315,1.01272 0.33758,0.35834 0.84134,0.35834 0.34276,0 0.57646,-0.18696 0.23371,-0.18696 0.35316,-0.60243 z m 0.0831,-1.47493 q -0.0156,-0.6336 -0.32718,-0.96078 -0.31161,-0.33238 -0.75824,-0.33238 -0.47779,0 -0.7894,0.34796 -0.3116,0.34796 -0.30641,0.9452 z"
         id="path5367"
         style="font-weight:bold;font-size:10.6361px;line-height:1.25;font-family:Arial;-inkscape-font-specification:'Arial, Bold';letter-spacing:1.43368px;fill:#333333;stroke-width:1.3295" />
      <path
         d="m 168.71281,173.46036 -1.8177,-7.61354 h 1.57361 l 1.14774,5.22976 1.39183,-5.22976 h 1.82808 l 1.33471,5.31805 1.16852,-5.31805 h 1.54763 l -1.84885,7.61354 h -1.63073 l -1.51648,-5.69198 -1.51128,5.69198 z"
         id="path5369"
         style="font-weight:bold;font-size:10.6361px;line-height:1.25;font-family:Arial;-inkscape-font-specification:'Arial, Bold';letter-spacing:1.43368px;fill:#333333;stroke-width:1.3295" />
      <path
         d="m 179.00125,167.19711 v -1.35029 h 1.45934 v 1.35029 z m 0,6.26325 v -5.5154 h 1.45934 v 5.5154 z"
         id="path5371"
         style="font-weight:bold;font-size:10.6361px;line-height:1.25;font-family:Arial;-inkscape-font-specification:'Arial, Bold';letter-spacing:1.43368px;fill:#333333;stroke-width:1.3295" />
      <path
         d="m 185.91917,167.94496 v 1.16332 h -0.99714 v 2.22278 q 0,0.67514 0.026,0.7894 0.0312,0.10906 0.12983,0.18177 0.10387,0.0727 0.24929,0.0727 0.20254,0 0.58685,-0.14023 l 0.12464,1.13217 q -0.50895,0.21812 -1.15293,0.21812 -0.3947,0 -0.7115,-0.12984 -0.3168,-0.13502 -0.46741,-0.34276 -0.14541,-0.21293 -0.20254,-0.57128 -0.0467,-0.25447 -0.0467,-1.02829 v -2.40455 h -0.66995 v -1.16332 h 0.66995 v -1.09581 l 1.46454,-0.85172 v 1.94753 z"
         id="path5373"
         style="font-weight:bold;font-size:10.6361px;line-height:1.25;font-family:Arial;-inkscape-font-specification:'Arial, Bold';letter-spacing:1.43368px;fill:#333333;stroke-width:1.3295" />
      <path
         d="m 189.81972,165.84682 v 2.79925 q 0.7063,-0.82575 1.68785,-0.82575 0.50376,0 0.90885,0.18696 0.40509,0.18696 0.60763,0.47779 0.20774,0.29083 0.28044,0.64399 0.0779,0.35315 0.0779,1.0958 v 3.2355 h -1.45934 v -2.9135 q 0,-0.8673 -0.0831,-1.10101 -0.0831,-0.2337 -0.29602,-0.36873 -0.20774,-0.14022 -0.52454,-0.14022 -0.36354,0 -0.64917,0.17658 -0.28564,0.17657 -0.42067,0.53492 -0.12983,0.35315 -0.12983,1.04906 v 2.7629 h -1.45935 v -7.61354 z"
         id="path5375"
         style="font-weight:bold;font-size:10.6361px;line-height:1.25;font-family:Arial;-inkscape-font-specification:'Arial, Bold';letter-spacing:1.43368px;fill:#333333;stroke-width:1.3295" />
      <path
         d="m 200.64857,173.46036 v -7.61354 h 1.53725 v 7.61354 z"
         id="path5377"
         style="font-weight:bold;font-size:10.6361px;line-height:1.25;font-family:Arial;-inkscape-font-specification:'Arial, Bold';letter-spacing:1.43368px;fill:#333333;stroke-width:1.3295" />
      <path
         d="m 210.09049,173.46036 h -1.45935 v -2.81483 q 0,-0.89327 -0.0935,-1.15294 -0.0935,-0.26486 -0.30641,-0.41028 -0.20774,-0.14541 -0.50376,-0.14541 -0.37912,0 -0.68034,0.20774 -0.30122,0.20773 -0.41547,0.5505 -0.10906,0.34276 -0.10906,1.26719 v 2.49803 h -1.45935 v -5.5154 h 1.35548 v 0.81017 q 0.72188,-0.93481 1.81769,-0.93481 0.48299,0 0.88288,0.17657 0.39989,0.17138 0.60244,0.44144 0.20773,0.27006 0.28564,0.61282 0.0831,0.34277 0.0831,0.98156 z"
         id="path5379"
         style="font-weight:bold;font-size:10.6361px;line-height:1.25;font-family:Arial;-inkscape-font-specification:'Arial, Bold';letter-spacing:1.43368px;fill:#333333;stroke-width:1.3295" />
      <path
         d="m 212.49014,171.88676 1.46454,-0.22332 q 0.0935,0.42586 0.37912,0.64917 0.28564,0.21813 0.79979,0.21813 0.56608,0 0.85172,-0.20774 0.19215,-0.14541 0.19215,-0.3895 0,-0.16619 -0.10386,-0.27525 -0.10907,-0.10387 -0.48819,-0.19216 -1.76575,-0.38951 -2.23835,-0.7115 -0.65437,-0.44663 -0.65437,-1.24122 0,-0.71669 0.56608,-1.20487 0.56608,-0.48818 1.75537,-0.48818 1.13216,0 1.68266,0.36873 0.55051,0.36873 0.75824,1.09061 l -1.37625,0.25448 q -0.0883,-0.32199 -0.33757,-0.49337 -0.24409,-0.17139 -0.70111,-0.17139 -0.57647,0 -0.82575,0.161 -0.16619,0.11426 -0.16619,0.29602 0,0.15581 0.14541,0.26487 0.19735,0.14541 1.36067,0.41028 1.16852,0.26486 1.63073,0.64917 0.45702,0.38951 0.45702,1.08543 0,0.75823 -0.63359,1.30354 -0.6336,0.54531 -1.87482,0.54531 -1.12697,0 -1.78653,-0.45702 -0.65437,-0.45702 -0.85692,-1.24122 z"
         id="path5381"
         style="font-weight:bold;font-size:10.6361px;line-height:1.25;font-family:Arial;-inkscape-font-specification:'Arial, Bold';letter-spacing:1.43368px;fill:#333333;stroke-width:1.3295" />
      <path
         d="m 223.98345,173.46036 v -0.82575 q -0.30122,0.44144 -0.79459,0.69591 -0.48818,0.25448 -1.03349,0.25448 -0.55569,0 -0.99713,-0.24409 -0.44144,-0.24409 -0.63879,-0.68553 -0.19735,-0.44144 -0.19735,-1.22045 v -3.48997 h 1.45935 v 2.53438 q 0,1.16332 0.0779,1.42819 0.0831,0.25967 0.29602,0.41547 0.21293,0.15061 0.54012,0.15061 0.37392,0 0.66995,-0.20254 0.29602,-0.20774 0.40508,-0.50896 0.10906,-0.30641 0.10906,-1.4905 v -2.32665 h 1.45935 v 5.5154 z"
         id="path5383"
         style="font-weight:bold;font-size:10.6361px;line-height:1.25;font-family:Arial;-inkscape-font-specification:'Arial, Bold';letter-spacing:1.43368px;fill:#333333;stroke-width:1.3295" />
      <path
         d="m 229.68092,173.46036 h -1.45935 v -5.5154 h 1.35548 v 0.7842 q 0.34796,-0.55569 0.62321,-0.73227 0.28044,-0.17657 0.6336,-0.17657 0.49856,0 0.96078,0.27525 l -0.45183,1.27238 q -0.36873,-0.23889 -0.68553,-0.23889 -0.30641,0 -0.51934,0.17138 -0.21293,0.16619 -0.33757,0.60763 -0.11945,0.44144 -0.11945,1.84885 z"
         id="path5385"
         style="font-weight:bold;font-size:10.6361px;line-height:1.25;font-family:Arial;-inkscape-font-specification:'Arial, Bold';letter-spacing:1.43368px;fill:#333333;stroke-width:1.3295" />
      <path
         d="m 234.94733,169.62762 -1.32432,-0.23889 q 0.22332,-0.79979 0.76863,-1.1841 0.5453,-0.38431 1.62034,-0.38431 0.97636,0 1.45415,0.2337 0.4778,0.22851 0.66995,0.58685 0.19735,0.35316 0.19735,1.30355 l -0.0156,1.70344 q 0,0.72708 0.0675,1.07503 0.0727,0.34277 0.26486,0.73747 h -1.44377 q -0.0571,-0.14542 -0.14022,-0.43106 -0.0363,-0.12983 -0.0519,-0.17138 -0.37393,0.36354 -0.79979,0.54531 -0.42586,0.18177 -0.90884,0.18177 -0.85172,0 -1.3451,-0.46221 -0.48818,-0.46222 -0.48818,-1.16852 0,-0.46741 0.22332,-0.83095 0.22332,-0.36873 0.62321,-0.56088 0.40508,-0.19735 1.16332,-0.34277 1.0231,-0.19216 1.4178,-0.35834 v -0.14542 q 0,-0.42067 -0.20773,-0.59724 -0.20774,-0.18177 -0.78421,-0.18177 -0.3895,0 -0.60763,0.1558 -0.21812,0.15061 -0.35315,0.53492 z m 1.95272,1.1841 q -0.28044,0.0935 -0.88807,0.22332 -0.60763,0.12983 -0.79459,0.25447 -0.28564,0.20255 -0.28564,0.51415 0,0.30641 0.22851,0.52973 0.22851,0.22331 0.58166,0.22331 0.3947,0 0.75305,-0.25967 0.26486,-0.19735 0.34796,-0.48298 0.0571,-0.18697 0.0571,-0.7115 z"
         id="path5387"
         style="font-weight:bold;font-size:10.6361px;line-height:1.25;font-family:Arial;-inkscape-font-specification:'Arial, Bold';letter-spacing:1.43368px;fill:#333333;stroke-width:1.3295" />
      <path
         d="m 246.22252,173.46036 h -1.45934 v -2.81483 q 0,-0.89327 -0.0935,-1.15294 -0.0935,-0.26486 -0.30641,-0.41028 -0.20773,-0.14541 -0.50376,-0.14541 -0.37912,0 -0.68033,0.20774 -0.30122,0.20773 -0.41548,0.5505 -0.10906,0.34276 -0.10906,1.26719 v 2.49803 h -1.45935 v -5.5154 h 1.35548 v 0.81017 q 0.72189,-0.93481 1.8177,-0.93481 0.48298,0 0.88288,0.17657 0.39989,0.17138 0.60243,0.44144 0.20774,0.27006 0.28564,0.61282 0.0831,0.34277 0.0831,0.98156 z"
         id="path5389"
         style="font-weight:bold;font-size:10.6361px;line-height:1.25;font-family:Arial;-inkscape-font-specification:'Arial, Bold';letter-spacing:1.43368px;fill:#333333;stroke-width:1.3295" />
      <path
         d="m 253.94542,169.57569 -1.43857,0.25967 q -0.0727,-0.43105 -0.33238,-0.64918 -0.25448,-0.21812 -0.66476,-0.21812 -0.54531,0 -0.87249,0.37912 -0.32199,0.37392 -0.32199,1.2568 0,0.98156 0.32718,1.38664 0.33238,0.40509 0.88808,0.40509 0.41547,0 0.68033,-0.2337 0.26487,-0.2389 0.37393,-0.81537 l 1.43338,0.24409 q -0.22332,0.98675 -0.85691,1.49051 -0.6336,0.50376 -1.69825,0.50376 -1.21006,0 -1.93195,-0.76343 -0.71669,-0.76343 -0.71669,-2.11372 0,-1.36586 0.72189,-2.1241 0.72188,-0.76343 1.95272,-0.76343 1.00752,0 1.59957,0.43624 0.59724,0.43106 0.85691,1.31913 z"
         id="path5391"
         style="font-weight:bold;font-size:10.6361px;line-height:1.25;font-family:Arial;-inkscape-font-specification:'Arial, Bold';letter-spacing:1.43368px;fill:#333333;stroke-width:1.3295" />
      <path
         d="m 259.67924,171.70499 1.45415,0.24409 q -0.28044,0.79978 -0.88807,1.22045 -0.60243,0.41547 -1.51128,0.41547 -1.43857,0 -2.1293,-0.94001 -0.54531,-0.75304 -0.54531,-1.90078 0,-1.37106 0.71669,-2.14488 0.71669,-0.77901 1.8125,-0.77901 1.23084,0 1.94234,0.81536 0.7115,0.81017 0.68034,2.48764 h -3.65616 q 0.0156,0.64918 0.35315,1.01272 0.33757,0.35834 0.84133,0.35834 0.34276,0 0.57647,-0.18696 0.2337,-0.18696 0.35315,-0.60243 z m 0.0831,-1.47493 q -0.0156,-0.6336 -0.32718,-0.96078 -0.3116,-0.33238 -0.75824,-0.33238 -0.47779,0 -0.7894,0.34796 -0.3116,0.34796 -0.30641,0.9452 z"
         id="path5393"
         style="font-weight:bold;font-size:10.6361px;line-height:1.25;font-family:Arial;-inkscape-font-specification:'Arial, Bold';letter-spacing:1.43368px;fill:#333333;stroke-width:1.3295" />
    </g>
    <g
       id="g5733"
       transform="matrix(8.0453095,0,0,8.0453095,200.38525,-998.71559)"
       inkscape:export-filename="C:\1- Works\Clients\InnsDrive\final\InssDrive Logo.png"
       inkscape:export-xdpi="90"
       inkscape:export-ydpi="90">
      <g
         id="g5648"
         style="fill:#f16320;fill-opacity:1"
         transform="matrix(1.1608914,0,0,1.1608914,-141.83232,-40.96246)">
        <path
           d="m 143.13636,141.30927 h 7.62615 v 26.96113 h -7.62615 z"
           id="path5640"
           style="font-weight:800;font-size:38.5159px;line-height:1.25;font-family:Montserrat;-inkscape-font-specification:'Montserrat, Ultra-Bold';letter-spacing:2.13452px;fill:#f16320;fill-opacity:1;stroke-width:4.81448" />
        <path
           d="m 171.57727,147.04814 q 3.8901,0 6.23957,2.31095 2.38799,2.31096 2.38799,6.97138 v 11.93993 h -7.31802 v -10.74594 q 0,-4.27526 -3.42792,-4.27526 -1.88728,0 -3.04275,1.23251 -1.11697,1.23251 -1.11697,3.69753 v 10.09116 h -7.31802 v -20.87562 h 6.97138 v 2.27244 q 1.23251,-1.27102 2.92721,-1.92579 1.6947,-0.69329 3.69753,-0.69329 z"
           id="path5642"
           style="font-weight:800;font-size:38.5159px;line-height:1.25;font-family:Montserrat;-inkscape-font-specification:'Montserrat, Ultra-Bold';letter-spacing:2.13452px;fill:#f16320;fill-opacity:1;stroke-width:4.81448" />
        <path
           d="m 194.51034,168.61704 q -2.61908,0 -5.16113,-0.57773 -2.54205,-0.61626 -4.08269,-1.57916 l 2.19541,-5.00706 q 1.42509,0.88586 3.3894,1.42509 1.96431,0.5007 3.89011,0.5007 1.77173,0 2.50353,-0.34664 0.77032,-0.38516 0.77032,-1.07845 0,-0.69328 -0.92438,-0.96289 -0.88587,-0.30813 -2.85018,-0.57774 -2.50353,-0.30813 -4.27527,-0.80884 -1.73321,-0.5007 -3.00424,-1.84876 -1.27102,-1.34806 -1.27102,-3.77456 0,-2.00282 1.19399,-3.54346 1.194,-1.57915 3.46643,-2.46502 2.31096,-0.92438 5.50778,-0.92438 2.27244,0 4.50636,0.46219 2.23392,0.46219 3.73604,1.30954 l -2.19541,4.96855 q -2.77314,-1.54063 -6.00848,-1.54063 -1.73321,0 -2.54205,0.42367 -0.80883,0.38516 -0.80883,1.03993 0,0.7318 0.88587,1.03993 0.88586,0.26961 2.9272,0.57774 2.58057,0.38516 4.27527,0.88586 1.6947,0.50071 2.92721,1.84877 1.27102,1.30954 1.27102,3.69752 0,1.96431 -1.19399,3.54347 -1.19399,1.54063 -3.54346,2.4265 -2.31096,0.88586 -5.58481,0.88586 z"
           id="path5644"
           style="font-weight:800;font-size:38.5159px;line-height:1.25;font-family:Montserrat;-inkscape-font-specification:'Montserrat, Ultra-Bold';letter-spacing:2.13452px;fill:#f16320;fill-opacity:1;stroke-width:4.81448" />
        <path
           d="m 217.71309,168.61704 q -2.61908,0 -5.16113,-0.57773 -2.54205,-0.61626 -4.08269,-1.57916 l 2.19541,-5.00706 q 1.42509,0.88586 3.3894,1.42509 1.96431,0.5007 3.8901,0.5007 1.77173,0 2.50354,-0.34664 0.77031,-0.38516 0.77031,-1.07845 0,-0.69328 -0.92438,-0.96289 -0.88586,-0.30813 -2.85017,-0.57774 -2.50354,-0.30813 -4.27527,-0.80884 -1.73321,-0.5007 -3.00424,-1.84876 -1.27102,-1.34806 -1.27102,-3.77456 0,-2.00282 1.19399,-3.54346 1.19399,-1.57915 3.46643,-2.46502 2.31095,-0.92438 5.50777,-0.92438 2.27244,0 4.50636,0.46219 2.23393,0.46219 3.73605,1.30954 l -2.19541,4.96855 q -2.77314,-1.54063 -6.00848,-1.54063 -1.73322,0 -2.54205,0.42367 -0.80883,0.38516 -0.80883,1.03993 0,0.7318 0.88586,1.03993 0.88587,0.26961 2.92721,0.57774 2.58057,0.38516 4.27527,0.88586 1.6947,0.50071 2.9272,1.84877 1.27103,1.30954 1.27103,3.69752 0,1.96431 -1.19399,3.54347 -1.194,1.54063 -3.54347,2.4265 -2.31095,0.88586 -5.5848,0.88586 z"
           id="path5646"
           style="font-weight:800;font-size:38.5159px;line-height:1.25;font-family:Montserrat;-inkscape-font-specification:'Montserrat, Ultra-Bold';letter-spacing:2.13452px;fill:#f16320;fill-opacity:1;stroke-width:4.81448" />
      </g>
      <g
         id="g5660"
         style="fill:#00508f;fill-opacity:1"
         transform="matrix(0.78524953,0,0,0.78524953,-56.578385,24.415343)">
        <path
           d="m 236.88929,125.65039 h 18.84742 c 4.36547,0 8.23744,0.81615 11.61593,2.44845 3.37849,1.63231 5.99777,3.94791 7.85784,6.94679 1.86007,2.99889 2.79011,6.51024 2.79011,10.53407 0,4.02381 -0.93004,7.53516 -2.79011,10.53405 -1.86007,2.99888 -4.47935,5.31448 -7.85784,6.94679 -3.37849,1.6323 -7.25046,2.44845 -11.61593,2.44845 h -18.84742 z"
           id="path5650"
           style="font-weight:800;font-size:38.5159px;line-height:1.25;font-family:Montserrat;-inkscape-font-specification:'Montserrat, Ultra-Bold';letter-spacing:2.13452px;fill:#00508f;fill-opacity:1;stroke-width:7.1176"
           sodipodi:nodetypes="cssssssscc" />
        <path
           d="m 296.87188,138.34821 q 1.6513,-2.10681 4.27057,-3.13176 2.67621,-1.08187 6.09267,-1.08187 v 9.73689 q -1.48047,-0.17083 -2.44846,-0.17083 -3.4734,0 -5.46632,1.87906 -1.93598,1.87904 -1.93598,5.75102 v 14.17827 H 286.5656 v -30.86195 h 10.30628 z"
           id="path5652"
           style="font-weight:800;font-size:38.5159px;line-height:1.25;font-family:Montserrat;-inkscape-font-specification:'Montserrat, Ultra-Bold';letter-spacing:2.13452px;fill:#00508f;fill-opacity:1;stroke-width:7.1176" />
        <path
           d="m 314.83212,134.64704 h 10.81876 v 30.86195 h -10.81876 z m 5.40938,-3.41644 q -2.96092,0 -4.78303,-1.65128 -1.8221,-1.65129 -1.8221,-4.09975 0,-2.44845 1.8221,-4.09974 1.82211,-1.65128 4.78303,-1.65128 2.96093,0 4.78304,1.59434 1.8221,1.5374 1.8221,3.98587 0,2.56233 -1.8221,4.27056 -1.82211,1.65128 -4.78304,1.65128 z"
           id="path5654"
           style="font-weight:800;font-size:38.5159px;line-height:1.25;font-family:Montserrat;-inkscape-font-specification:'Montserrat, Ultra-Bold';letter-spacing:2.13452px;fill:#00508f;fill-opacity:1;stroke-width:7.1176" />
        <path
           d="m 368.32344,134.64704 -12.75476,30.86195 h -11.1604 l -12.69781,-30.86195 h 11.10346 l 7.40232,18.84744 7.8009,-18.84744 z"
           id="path5656"
           style="font-weight:800;font-size:38.5159px;line-height:1.25;font-family:Montserrat;-inkscape-font-specification:'Montserrat, Ultra-Bold';letter-spacing:2.13452px;fill:#00508f;fill-opacity:1;stroke-width:7.1176" />
        <path
           d="m 404.96036,150.13496 q 0,0.11384 -0.17083,2.67623 h -22.4347 q 0.68329,2.3915 2.61929,3.70115 1.99292,1.2527 4.95385,1.2527 2.22069,0 3.81503,-0.62636 1.65129,-0.62634 3.30258,-2.04987 l 5.69408,5.92185 q -4.49833,5.01079 -13.15334,5.01079 -5.40938,0 -9.50912,-2.04987 -4.09975,-2.04986 -6.37737,-5.69408 -2.2207,-3.64422 -2.2207,-8.25642 0,-4.55528 2.16375,-8.14255 2.22069,-3.6442 6.09267,-5.69408 3.87198,-2.04987 8.71196,-2.04987 4.6122,0 8.3703,1.93599 3.75809,1.87906 5.92185,5.52326 2.2207,3.58727 2.2207,8.54113 z m -16.45592,-8.31336 q -2.5054,0 -4.21363,1.42351 -1.65128,1.42353 -2.10679,3.87199 h 12.64086 q -0.45553,-2.44846 -2.16376,-3.87199 -1.65128,-1.42351 -4.15668,-1.42351 z"
           id="path5658"
           style="font-weight:800;font-size:38.5159px;line-height:1.25;font-family:Montserrat;-inkscape-font-specification:'Montserrat, Ultra-Bold';letter-spacing:2.13452px;fill:#00508f;fill-opacity:1;stroke-width:7.1176" />
      </g>
      <path
         id="path5662"
         style="fill:#ffffff;fill-opacity:1;stroke:none;stroke-width:0.163827px;stroke-linecap:butt;stroke-linejoin:miter;stroke-opacity:1"
         d="m 143.4888,126.0297 c -0.96721,-0.0501 -1.77636,-0.24236 -2.6583,1.49175 l -0.002,-4.9e-4 c 0.005,0.0369 -0.29313,0.002 -1.00973,-0.0921 -2.42882,-0.31729 -5.18003,0.19961 -6.58221,1.23697 -0.92421,0.68375 -1.37012,1.64289 -1.34373,2.89064 0.0969,4.58471 4.85962,9.95471 8.09605,9.12841 0.64279,-0.16411 0.88064,-0.35328 1.06202,-1.29251 0.18146,-0.93962 0.43797,-1.71598 0.62494,-4.1708 0.18254,-2.3965 0.27275,-3.0097 0.4218,-2.86717 0.35133,0.33599 0.4052,1.68673 0.19564,3.21153 -0.16718,1.21635 -0.16334,1.66254 0.0204,2.27 0.4279,1.41416 1.72376,2.19928 3.30424,2.00194 l 0.82914,-0.10347 0.79919,0.82 c 1.06244,1.09035 2.2628,1.9212 3.68384,2.54927 1.6428,0.7261 4.03669,0.91431 5.85296,0.46045 l 1.25415,-0.31341 -1.75734,-0.24305 c -2.0298,-0.28053 -3.7443,-0.88012 -4.70279,-1.64516 -0.10736,-0.0857 -0.18377,-0.15712 -0.272,-0.23426 0.69085,0.2648 1.36301,0.43315 1.99951,0.53232 l 0.006,0.003 -2.2e-4,-0.002 c 2.7767,0.43106 4.87307,-0.45965 4.87307,-0.45965 -2.57751,-0.26885 -4.15875,-0.70178 -5.11115,-1.08526 -0.0425,-0.27634 -0.0598,-0.38702 -0.10644,-0.69168 -0.38162,-2.49082 -0.68141,-3.19591 -1.14332,-4.52174 -0.89583,-2.17452 -2.7183,-6.87969 -8.33276,-8.87352 z m 4.31421,7.47385 c 0.0673,0.004 0.13596,0.0159 0.19828,0.0357 0.22161,0.069 0.44478,0.25739 0.40319,0.39091 -0.0416,0.13349 -0.33222,0.16154 -0.55383,0.0925 -0.22162,-0.0691 -0.45472,-0.26043 -0.41311,-0.39393 0.0299,-0.096 0.19354,-0.13591 0.36548,-0.12516 z m 1.67972,9.64008 c -0.0262,-0.002 -0.0499,-4.1e-4 -0.0771,-0.002 -0.0652,-0.004 -0.0842,0.028 -0.064,0.0943 1.37092,2.95546 0.70273,7.87193 -2.6327,6.21438 -1.70833,-0.84897 -0.36606,-3.23139 -0.60982,-3.45023 -0.23229,-0.20234 -0.79016,-0.39502 -0.95441,-0.42844 -0.51998,-0.10578 -0.88362,0.69518 -0.91206,2.07996 -0.0809,3.85665 3.34586,4.7342 5.33808,4.1685 2.841,-0.82391 3.53729,-2.77425 3.77765,-6.15427 l 0.0799,-1.12387 -1.28806,-0.36329 c -0.7083,-0.19978 -1.68645,-0.58133 -2.17388,-0.84783 -0.30071,-0.1644 -0.40459,-0.18468 -0.48358,-0.18752 z"
         sodipodi:nodetypes="ccccsssssssccccssccsccccccscccscssssscccscsccscsscc" />
      <g
         id="g5700"
         transform="translate(0,-6.2671308)">
        <path
           d="m 129.46443,165.84682 h 2.80963 q 0.95039,0 1.44896,0.14542 0.66995,0.19735 1.14774,0.70111 0.4778,0.50376 0.72708,1.23603 0.24928,0.72708 0.24928,1.79692 0,0.94 -0.2337,1.62034 -0.28564,0.83095 -0.81536,1.34509 -0.3999,0.38951 -1.08023,0.60763 -0.50896,0.161 -1.36068,0.161 h -2.89272 z m 1.53724,1.28797 v 5.0428 h 1.14775 q 0.64398,0 0.92962,-0.0727 0.37392,-0.0935 0.61801,-0.3168 0.24929,-0.22332 0.40509,-0.73227 0.1558,-0.51415 0.1558,-1.39703 0,-0.88288 -0.1558,-1.35548 -0.1558,-0.4726 -0.43625,-0.73746 -0.28044,-0.26486 -0.71149,-0.35835 -0.322,-0.0727 -1.262,-0.0727 z"
           id="path5664"
           style="font-weight:bold;font-size:10.6361px;line-height:1.25;font-family:Arial;-inkscape-font-specification:'Arial, Bold';letter-spacing:1.43368px;fill:#333333;stroke-width:1.3295" />
        <path
           d="m 139.97099,173.46036 h -1.45935 v -5.5154 h 1.35548 v 0.7842 q 0.34796,-0.55569 0.62321,-0.73227 0.28044,-0.17657 0.6336,-0.17657 0.49856,0 0.96078,0.27525 l -0.45183,1.27238 q -0.36873,-0.23889 -0.68553,-0.23889 -0.30641,0 -0.51934,0.17138 -0.21293,0.16619 -0.33757,0.60763 -0.11945,0.44144 -0.11945,1.84885 z"
           id="path5666"
           style="font-weight:bold;font-size:10.6361px;line-height:1.25;font-family:Arial;-inkscape-font-specification:'Arial, Bold';letter-spacing:1.43368px;fill:#333333;stroke-width:1.3295" />
        <path
           d="m 144.14679,167.19711 v -1.35029 h 1.45935 v 1.35029 z m 0,6.26325 v -5.5154 h 1.45935 v 5.5154 z"
           id="path5668"
           style="font-weight:bold;font-size:10.6361px;line-height:1.25;font-family:Arial;-inkscape-font-specification:'Arial, Bold';letter-spacing:1.43368px;fill:#333333;stroke-width:1.3295" />
        <path
           d="m 150.05199,173.46036 -2.22278,-5.5154 h 1.53206 l 1.03868,2.81483 0.30122,0.94 q 0.11945,-0.35834 0.15061,-0.4726 0.0727,-0.2337 0.1558,-0.4674 l 1.04907,-2.81483 h 1.50089 l -2.19161,5.5154 z"
           id="path5670"
           style="font-weight:bold;font-size:10.6361px;line-height:1.25;font-family:Arial;-inkscape-font-specification:'Arial, Bold';letter-spacing:1.43368px;fill:#333333;stroke-width:1.3295" />
        <path
           d="m 159.07844,171.70499 1.45415,0.24409 q -0.28044,0.79978 -0.88807,1.22045 -0.60244,0.41547 -1.51128,0.41547 -1.43858,0 -2.1293,-0.94001 -0.54531,-0.75304 -0.54531,-1.90078 0,-1.37106 0.71669,-2.14488 0.71669,-0.77901 1.8125,-0.77901 1.23084,0 1.94234,0.81536 0.71149,0.81017 0.68033,2.48764 h -3.65616 q 0.0156,0.64918 0.35315,1.01272 0.33758,0.35834 0.84134,0.35834 0.34276,0 0.57646,-0.18696 0.23371,-0.18696 0.35316,-0.60243 z m 0.0831,-1.47493 q -0.0156,-0.6336 -0.32718,-0.96078 -0.31161,-0.33238 -0.75824,-0.33238 -0.47779,0 -0.7894,0.34796 -0.3116,0.34796 -0.30641,0.9452 z"
           id="path5672"
           style="font-weight:bold;font-size:10.6361px;line-height:1.25;font-family:Arial;-inkscape-font-specification:'Arial, Bold';letter-spacing:1.43368px;fill:#333333;stroke-width:1.3295" />
        <path
           d="m 168.71281,173.46036 -1.8177,-7.61354 h 1.57361 l 1.14774,5.22976 1.39183,-5.22976 h 1.82808 l 1.33471,5.31805 1.16852,-5.31805 h 1.54763 l -1.84885,7.61354 h -1.63073 l -1.51648,-5.69198 -1.51128,5.69198 z"
           id="path5674"
           style="font-weight:bold;font-size:10.6361px;line-height:1.25;font-family:Arial;-inkscape-font-specification:'Arial, Bold';letter-spacing:1.43368px;fill:#333333;stroke-width:1.3295" />
        <path
           d="m 179.00125,167.19711 v -1.35029 h 1.45934 v 1.35029 z m 0,6.26325 v -5.5154 h 1.45934 v 5.5154 z"
           id="path5676"
           style="font-weight:bold;font-size:10.6361px;line-height:1.25;font-family:Arial;-inkscape-font-specification:'Arial, Bold';letter-spacing:1.43368px;fill:#333333;stroke-width:1.3295" />
        <path
           d="m 185.91917,167.94496 v 1.16332 h -0.99714 v 2.22278 q 0,0.67514 0.026,0.7894 0.0312,0.10906 0.12983,0.18177 0.10387,0.0727 0.24929,0.0727 0.20254,0 0.58685,-0.14023 l 0.12464,1.13217 q -0.50895,0.21812 -1.15293,0.21812 -0.3947,0 -0.7115,-0.12984 -0.3168,-0.13502 -0.46741,-0.34276 -0.14541,-0.21293 -0.20254,-0.57128 -0.0467,-0.25447 -0.0467,-1.02829 v -2.40455 h -0.66995 v -1.16332 h 0.66995 v -1.09581 l 1.46454,-0.85172 v 1.94753 z"
           id="path5678"
           style="font-weight:bold;font-size:10.6361px;line-height:1.25;font-family:Arial;-inkscape-font-specification:'Arial, Bold';letter-spacing:1.43368px;fill:#333333;stroke-width:1.3295" />
        <path
           d="m 189.81972,165.84682 v 2.79925 q 0.7063,-0.82575 1.68785,-0.82575 0.50376,0 0.90885,0.18696 0.40509,0.18696 0.60763,0.47779 0.20774,0.29083 0.28044,0.64399 0.0779,0.35315 0.0779,1.0958 v 3.2355 h -1.45934 v -2.9135 q 0,-0.8673 -0.0831,-1.10101 -0.0831,-0.2337 -0.29602,-0.36873 -0.20774,-0.14022 -0.52454,-0.14022 -0.36354,0 -0.64917,0.17658 -0.28564,0.17657 -0.42067,0.53492 -0.12983,0.35315 -0.12983,1.04906 v 2.7629 h -1.45935 v -7.61354 z"
           id="path5680"
           style="font-weight:bold;font-size:10.6361px;line-height:1.25;font-family:Arial;-inkscape-font-specification:'Arial, Bold';letter-spacing:1.43368px;fill:#333333;stroke-width:1.3295" />
        <path
           d="m 200.64857,173.46036 v -7.61354 h 1.53725 v 7.61354 z"
           id="path5682"
           style="font-weight:bold;font-size:10.6361px;line-height:1.25;font-family:Arial;-inkscape-font-specification:'Arial, Bold';letter-spacing:1.43368px;fill:#333333;stroke-width:1.3295" />
        <path
           d="m 210.09049,173.46036 h -1.45935 v -2.81483 q 0,-0.89327 -0.0935,-1.15294 -0.0935,-0.26486 -0.30641,-0.41028 -0.20774,-0.14541 -0.50376,-0.14541 -0.37912,0 -0.68034,0.20774 -0.30122,0.20773 -0.41547,0.5505 -0.10906,0.34276 -0.10906,1.26719 v 2.49803 h -1.45935 v -5.5154 h 1.35548 v 0.81017 q 0.72188,-0.93481 1.81769,-0.93481 0.48299,0 0.88288,0.17657 0.39989,0.17138 0.60244,0.44144 0.20773,0.27006 0.28564,0.61282 0.0831,0.34277 0.0831,0.98156 z"
           id="path5684"
           style="font-weight:bold;font-size:10.6361px;line-height:1.25;font-family:Arial;-inkscape-font-specification:'Arial, Bold';letter-spacing:1.43368px;fill:#333333;stroke-width:1.3295" />
        <path
           d="m 212.49014,171.88676 1.46454,-0.22332 q 0.0935,0.42586 0.37912,0.64917 0.28564,0.21813 0.79979,0.21813 0.56608,0 0.85172,-0.20774 0.19215,-0.14541 0.19215,-0.3895 0,-0.16619 -0.10386,-0.27525 -0.10907,-0.10387 -0.48819,-0.19216 -1.76575,-0.38951 -2.23835,-0.7115 -0.65437,-0.44663 -0.65437,-1.24122 0,-0.71669 0.56608,-1.20487 0.56608,-0.48818 1.75537,-0.48818 1.13216,0 1.68266,0.36873 0.55051,0.36873 0.75824,1.09061 l -1.37625,0.25448 q -0.0883,-0.32199 -0.33757,-0.49337 -0.24409,-0.17139 -0.70111,-0.17139 -0.57647,0 -0.82575,0.161 -0.16619,0.11426 -0.16619,0.29602 0,0.15581 0.14541,0.26487 0.19735,0.14541 1.36067,0.41028 1.16852,0.26486 1.63073,0.64917 0.45702,0.38951 0.45702,1.08543 0,0.75823 -0.63359,1.30354 -0.6336,0.54531 -1.87482,0.54531 -1.12697,0 -1.78653,-0.45702 -0.65437,-0.45702 -0.85692,-1.24122 z"
           id="path5686"
           style="font-weight:bold;font-size:10.6361px;line-height:1.25;font-family:Arial;-inkscape-font-specification:'Arial, Bold';letter-spacing:1.43368px;fill:#333333;stroke-width:1.3295" />
        <path
           d="m 223.98345,173.46036 v -0.82575 q -0.30122,0.44144 -0.79459,0.69591 -0.48818,0.25448 -1.03349,0.25448 -0.55569,0 -0.99713,-0.24409 -0.44144,-0.24409 -0.63879,-0.68553 -0.19735,-0.44144 -0.19735,-1.22045 v -3.48997 h 1.45935 v 2.53438 q 0,1.16332 0.0779,1.42819 0.0831,0.25967 0.29602,0.41547 0.21293,0.15061 0.54012,0.15061 0.37392,0 0.66995,-0.20254 0.29602,-0.20774 0.40508,-0.50896 0.10906,-0.30641 0.10906,-1.4905 v -2.32665 h 1.45935 v 5.5154 z"
           id="path5688"
           style="font-weight:bold;font-size:10.6361px;line-height:1.25;font-family:Arial;-inkscape-font-specification:'Arial, Bold';letter-spacing:1.43368px;fill:#333333;stroke-width:1.3295" />
        <path
           d="m 229.68092,173.46036 h -1.45935 v -5.5154 h 1.35548 v 0.7842 q 0.34796,-0.55569 0.62321,-0.73227 0.28044,-0.17657 0.6336,-0.17657 0.49856,0 0.96078,0.27525 l -0.45183,1.27238 q -0.36873,-0.23889 -0.68553,-0.23889 -0.30641,0 -0.51934,0.17138 -0.21293,0.16619 -0.33757,0.60763 -0.11945,0.44144 -0.11945,1.84885 z"
           id="path5690"
           style="font-weight:bold;font-size:10.6361px;line-height:1.25;font-family:Arial;-inkscape-font-specification:'Arial, Bold';letter-spacing:1.43368px;fill:#333333;stroke-width:1.3295" />
        <path
           d="m 234.94733,169.62762 -1.32432,-0.23889 q 0.22332,-0.79979 0.76863,-1.1841 0.5453,-0.38431 1.62034,-0.38431 0.97636,0 1.45415,0.2337 0.4778,0.22851 0.66995,0.58685 0.19735,0.35316 0.19735,1.30355 l -0.0156,1.70344 q 0,0.72708 0.0675,1.07503 0.0727,0.34277 0.26486,0.73747 h -1.44377 q -0.0571,-0.14542 -0.14022,-0.43106 -0.0363,-0.12983 -0.0519,-0.17138 -0.37393,0.36354 -0.79979,0.54531 -0.42586,0.18177 -0.90884,0.18177 -0.85172,0 -1.3451,-0.46221 -0.48818,-0.46222 -0.48818,-1.16852 0,-0.46741 0.22332,-0.83095 0.22332,-0.36873 0.62321,-0.56088 0.40508,-0.19735 1.16332,-0.34277 1.0231,-0.19216 1.4178,-0.35834 v -0.14542 q 0,-0.42067 -0.20773,-0.59724 -0.20774,-0.18177 -0.78421,-0.18177 -0.3895,0 -0.60763,0.1558 -0.21812,0.15061 -0.35315,0.53492 z m 1.95272,1.1841 q -0.28044,0.0935 -0.88807,0.22332 -0.60763,0.12983 -0.79459,0.25447 -0.28564,0.20255 -0.28564,0.51415 0,0.30641 0.22851,0.52973 0.22851,0.22331 0.58166,0.22331 0.3947,0 0.75305,-0.25967 0.26486,-0.19735 0.34796,-0.48298 0.0571,-0.18697 0.0571,-0.7115 z"
           id="path5692"
           style="font-weight:bold;font-size:10.6361px;line-height:1.25;font-family:Arial;-inkscape-font-specification:'Arial, Bold';letter-spacing:1.43368px;fill:#333333;stroke-width:1.3295" />
        <path
           d="m 246.22252,173.46036 h -1.45934 v -2.81483 q 0,-0.89327 -0.0935,-1.15294 -0.0935,-0.26486 -0.30641,-0.41028 -0.20773,-0.14541 -0.50376,-0.14541 -0.37912,0 -0.68033,0.20774 -0.30122,0.20773 -0.41548,0.5505 -0.10906,0.34276 -0.10906,1.26719 v 2.49803 h -1.45935 v -5.5154 h 1.35548 v 0.81017 q 0.72189,-0.93481 1.8177,-0.93481 0.48298,0 0.88288,0.17657 0.39989,0.17138 0.60243,0.44144 0.20774,0.27006 0.28564,0.61282 0.0831,0.34277 0.0831,0.98156 z"
           id="path5694"
           style="font-weight:bold;font-size:10.6361px;line-height:1.25;font-family:Arial;-inkscape-font-specification:'Arial, Bold';letter-spacing:1.43368px;fill:#333333;stroke-width:1.3295" />
        <path
           d="m 253.94542,169.57569 -1.43857,0.25967 q -0.0727,-0.43105 -0.33238,-0.64918 -0.25448,-0.21812 -0.66476,-0.21812 -0.54531,0 -0.87249,0.37912 -0.32199,0.37392 -0.32199,1.2568 0,0.98156 0.32718,1.38664 0.33238,0.40509 0.88808,0.40509 0.41547,0 0.68033,-0.2337 0.26487,-0.2389 0.37393,-0.81537 l 1.43338,0.24409 q -0.22332,0.98675 -0.85691,1.49051 -0.6336,0.50376 -1.69825,0.50376 -1.21006,0 -1.93195,-0.76343 -0.71669,-0.76343 -0.71669,-2.11372 0,-1.36586 0.72189,-2.1241 0.72188,-0.76343 1.95272,-0.76343 1.00752,0 1.59957,0.43624 0.59724,0.43106 0.85691,1.31913 z"
           id="path5696"
           style="font-weight:bold;font-size:10.6361px;line-height:1.25;font-family:Arial;-inkscape-font-specification:'Arial, Bold';letter-spacing:1.43368px;fill:#333333;stroke-width:1.3295" />
        <path
           d="m 259.67924,171.70499 1.45415,0.24409 q -0.28044,0.79978 -0.88807,1.22045 -0.60243,0.41547 -1.51128,0.41547 -1.43857,0 -2.1293,-0.94001 -0.54531,-0.75304 -0.54531,-1.90078 0,-1.37106 0.71669,-2.14488 0.71669,-0.77901 1.8125,-0.77901 1.23084,0 1.94234,0.81536 0.7115,0.81017 0.68034,2.48764 h -3.65616 q 0.0156,0.64918 0.35315,1.01272 0.33757,0.35834 0.84133,0.35834 0.34276,0 0.57647,-0.18696 0.2337,-0.18696 0.35315,-0.60243 z m 0.0831,-1.47493 q -0.0156,-0.6336 -0.32718,-0.96078 -0.3116,-0.33238 -0.75824,-0.33238 -0.47779,0 -0.7894,0.34796 -0.3116,0.34796 -0.30641,0.9452 z"
           id="path5698"
           style="font-weight:bold;font-size:10.6361px;line-height:1.25;font-family:Arial;-inkscape-font-specification:'Arial, Bold';letter-spacing:1.43368px;fill:#333333;stroke-width:1.3295" />
      </g>
    </g>
    <g
       id="g5957"
       transform="matrix(5.5033047,0,0,5.5033047,563.57418,-257.75259)"
       inkscape:export-filename="C:\1- Works\Clients\InnsDrive\final\InssDrive Logo.png"
       inkscape:export-xdpi="90"
       inkscape:export-ydpi="90">
      <g
         id="g5903"
         style="fill:#f16320;fill-opacity:1"
         transform="matrix(1.1608914,0,0,1.1608914,-141.83232,-40.96246)">
        <path
           d="m 143.13636,141.30927 h 7.62615 v 26.96113 h -7.62615 z"
           id="path5895"
           style="font-weight:800;font-size:38.5159px;line-height:1.25;font-family:Montserrat;-inkscape-font-specification:'Montserrat, Ultra-Bold';letter-spacing:2.13452px;fill:#f16320;fill-opacity:1;stroke-width:4.81448" />
        <path
           d="m 171.57727,147.04814 q 3.8901,0 6.23957,2.31095 2.38799,2.31096 2.38799,6.97138 v 11.93993 h -7.31802 v -10.74594 q 0,-4.27526 -3.42792,-4.27526 -1.88728,0 -3.04275,1.23251 -1.11697,1.23251 -1.11697,3.69753 v 10.09116 h -7.31802 v -20.87562 h 6.97138 v 2.27244 q 1.23251,-1.27102 2.92721,-1.92579 1.6947,-0.69329 3.69753,-0.69329 z"
           id="path5897"
           style="font-weight:800;font-size:38.5159px;line-height:1.25;font-family:Montserrat;-inkscape-font-specification:'Montserrat, Ultra-Bold';letter-spacing:2.13452px;fill:#f16320;fill-opacity:1;stroke-width:4.81448" />
        <path
           d="m 194.51034,168.61704 q -2.61908,0 -5.16113,-0.57773 -2.54205,-0.61626 -4.08269,-1.57916 l 2.19541,-5.00706 q 1.42509,0.88586 3.3894,1.42509 1.96431,0.5007 3.89011,0.5007 1.77173,0 2.50353,-0.34664 0.77032,-0.38516 0.77032,-1.07845 0,-0.69328 -0.92438,-0.96289 -0.88587,-0.30813 -2.85018,-0.57774 -2.50353,-0.30813 -4.27527,-0.80884 -1.73321,-0.5007 -3.00424,-1.84876 -1.27102,-1.34806 -1.27102,-3.77456 0,-2.00282 1.19399,-3.54346 1.194,-1.57915 3.46643,-2.46502 2.31096,-0.92438 5.50778,-0.92438 2.27244,0 4.50636,0.46219 2.23392,0.46219 3.73604,1.30954 l -2.19541,4.96855 q -2.77314,-1.54063 -6.00848,-1.54063 -1.73321,0 -2.54205,0.42367 -0.80883,0.38516 -0.80883,1.03993 0,0.7318 0.88587,1.03993 0.88586,0.26961 2.9272,0.57774 2.58057,0.38516 4.27527,0.88586 1.6947,0.50071 2.92721,1.84877 1.27102,1.30954 1.27102,3.69752 0,1.96431 -1.19399,3.54347 -1.19399,1.54063 -3.54346,2.4265 -2.31096,0.88586 -5.58481,0.88586 z"
           id="path5899"
           style="font-weight:800;font-size:38.5159px;line-height:1.25;font-family:Montserrat;-inkscape-font-specification:'Montserrat, Ultra-Bold';letter-spacing:2.13452px;fill:#f16320;fill-opacity:1;stroke-width:4.81448" />
        <path
           d="m 217.71309,168.61704 q -2.61908,0 -5.16113,-0.57773 -2.54205,-0.61626 -4.08269,-1.57916 l 2.19541,-5.00706 q 1.42509,0.88586 3.3894,1.42509 1.96431,0.5007 3.8901,0.5007 1.77173,0 2.50354,-0.34664 0.77031,-0.38516 0.77031,-1.07845 0,-0.69328 -0.92438,-0.96289 -0.88586,-0.30813 -2.85017,-0.57774 -2.50354,-0.30813 -4.27527,-0.80884 -1.73321,-0.5007 -3.00424,-1.84876 -1.27102,-1.34806 -1.27102,-3.77456 0,-2.00282 1.19399,-3.54346 1.19399,-1.57915 3.46643,-2.46502 2.31095,-0.92438 5.50777,-0.92438 2.27244,0 4.50636,0.46219 2.23393,0.46219 3.73605,1.30954 l -2.19541,4.96855 q -2.77314,-1.54063 -6.00848,-1.54063 -1.73322,0 -2.54205,0.42367 -0.80883,0.38516 -0.80883,1.03993 0,0.7318 0.88586,1.03993 0.88587,0.26961 2.92721,0.57774 2.58057,0.38516 4.27527,0.88586 1.6947,0.50071 2.9272,1.84877 1.27103,1.30954 1.27103,3.69752 0,1.96431 -1.19399,3.54347 -1.194,1.54063 -3.54347,2.4265 -2.31095,0.88586 -5.5848,0.88586 z"
           id="path5901"
           style="font-weight:800;font-size:38.5159px;line-height:1.25;font-family:Montserrat;-inkscape-font-specification:'Montserrat, Ultra-Bold';letter-spacing:2.13452px;fill:#f16320;fill-opacity:1;stroke-width:4.81448" />
      </g>
      <g
         id="g5915"
         style="fill:#00508f;fill-opacity:1"
         transform="matrix(0.78524953,0,0,0.78524953,-56.578385,24.415343)">
        <path
           d="m 236.88929,125.65039 h 18.84742 c 4.36547,0 8.23744,0.81615 11.61593,2.44845 3.37849,1.63231 5.99777,3.94791 7.85784,6.94679 1.86007,2.99889 2.79011,6.51024 2.79011,10.53407 0,4.02381 -0.93004,7.53516 -2.79011,10.53405 -1.86007,2.99888 -4.47935,5.31448 -7.85784,6.94679 -3.37849,1.6323 -7.25046,2.44845 -11.61593,2.44845 h -18.84742 z"
           id="path5905"
           style="font-weight:800;font-size:38.5159px;line-height:1.25;font-family:Montserrat;-inkscape-font-specification:'Montserrat, Ultra-Bold';letter-spacing:2.13452px;fill:#00508f;fill-opacity:1;stroke-width:7.1176"
           sodipodi:nodetypes="cssssssscc" />
        <path
           d="m 296.87188,138.34821 q 1.6513,-2.10681 4.27057,-3.13176 2.67621,-1.08187 6.09267,-1.08187 v 9.73689 q -1.48047,-0.17083 -2.44846,-0.17083 -3.4734,0 -5.46632,1.87906 -1.93598,1.87904 -1.93598,5.75102 v 14.17827 H 286.5656 v -30.86195 h 10.30628 z"
           id="path5907"
           style="font-weight:800;font-size:38.5159px;line-height:1.25;font-family:Montserrat;-inkscape-font-specification:'Montserrat, Ultra-Bold';letter-spacing:2.13452px;fill:#00508f;fill-opacity:1;stroke-width:7.1176" />
        <path
           d="m 314.83212,134.64704 h 10.81876 v 30.86195 h -10.81876 z m 5.40938,-3.41644 q -2.96092,0 -4.78303,-1.65128 -1.8221,-1.65129 -1.8221,-4.09975 0,-2.44845 1.8221,-4.09974 1.82211,-1.65128 4.78303,-1.65128 2.96093,0 4.78304,1.59434 1.8221,1.5374 1.8221,3.98587 0,2.56233 -1.8221,4.27056 -1.82211,1.65128 -4.78304,1.65128 z"
           id="path5909"
           style="font-weight:800;font-size:38.5159px;line-height:1.25;font-family:Montserrat;-inkscape-font-specification:'Montserrat, Ultra-Bold';letter-spacing:2.13452px;fill:#00508f;fill-opacity:1;stroke-width:7.1176" />
        <path
           d="m 368.32344,134.64704 -12.75476,30.86195 h -11.1604 l -12.69781,-30.86195 h 11.10346 l 7.40232,18.84744 7.8009,-18.84744 z"
           id="path5911"
           style="font-weight:800;font-size:38.5159px;line-height:1.25;font-family:Montserrat;-inkscape-font-specification:'Montserrat, Ultra-Bold';letter-spacing:2.13452px;fill:#00508f;fill-opacity:1;stroke-width:7.1176" />
        <path
           d="m 404.96036,150.13496 q 0,0.11384 -0.17083,2.67623 h -22.4347 q 0.68329,2.3915 2.61929,3.70115 1.99292,1.2527 4.95385,1.2527 2.22069,0 3.81503,-0.62636 1.65129,-0.62634 3.30258,-2.04987 l 5.69408,5.92185 q -4.49833,5.01079 -13.15334,5.01079 -5.40938,0 -9.50912,-2.04987 -4.09975,-2.04986 -6.37737,-5.69408 -2.2207,-3.64422 -2.2207,-8.25642 0,-4.55528 2.16375,-8.14255 2.22069,-3.6442 6.09267,-5.69408 3.87198,-2.04987 8.71196,-2.04987 4.6122,0 8.3703,1.93599 3.75809,1.87906 5.92185,5.52326 2.2207,3.58727 2.2207,8.54113 z m -16.45592,-8.31336 q -2.5054,0 -4.21363,1.42351 -1.65128,1.42353 -2.10679,3.87199 h 12.64086 q -0.45553,-2.44846 -2.16376,-3.87199 -1.65128,-1.42351 -4.15668,-1.42351 z"
           id="path5913"
           style="font-weight:800;font-size:38.5159px;line-height:1.25;font-family:Montserrat;-inkscape-font-specification:'Montserrat, Ultra-Bold';letter-spacing:2.13452px;fill:#00508f;fill-opacity:1;stroke-width:7.1176" />
      </g>
      <path
         id="path5917"
         style="fill:#ffffff;fill-opacity:1;stroke:none;stroke-width:0.163827px;stroke-linecap:butt;stroke-linejoin:miter;stroke-opacity:1"
         d="m 143.4888,126.0297 c -0.96721,-0.0501 -1.77636,-0.24236 -2.6583,1.49175 l -0.002,-4.9e-4 c 0.005,0.0369 -0.29313,0.002 -1.00973,-0.0921 -2.42882,-0.31729 -5.18003,0.19961 -6.58221,1.23697 -0.92421,0.68375 -1.37012,1.64289 -1.34373,2.89064 0.0969,4.58471 4.85962,9.95471 8.09605,9.12841 0.64279,-0.16411 0.88064,-0.35328 1.06202,-1.29251 0.18146,-0.93962 0.43797,-1.71598 0.62494,-4.1708 0.18254,-2.3965 0.27275,-3.0097 0.4218,-2.86717 0.35133,0.33599 0.4052,1.68673 0.19564,3.21153 -0.16718,1.21635 -0.16334,1.66254 0.0204,2.27 0.4279,1.41416 1.72376,2.19928 3.30424,2.00194 l 0.82914,-0.10347 0.79919,0.82 c 1.06244,1.09035 2.2628,1.9212 3.68384,2.54927 1.6428,0.7261 4.03669,0.91431 5.85296,0.46045 l 1.25415,-0.31341 -1.75734,-0.24305 c -2.0298,-0.28053 -3.7443,-0.88012 -4.70279,-1.64516 -0.10736,-0.0857 -0.18377,-0.15712 -0.272,-0.23426 0.69085,0.2648 1.36301,0.43315 1.99951,0.53232 l 0.006,0.003 -2.2e-4,-0.002 c 2.7767,0.43106 4.87307,-0.45965 4.87307,-0.45965 -2.57751,-0.26885 -4.15875,-0.70178 -5.11115,-1.08526 -0.0425,-0.27634 -0.0598,-0.38702 -0.10644,-0.69168 -0.38162,-2.49082 -0.68141,-3.19591 -1.14332,-4.52174 -0.89583,-2.17452 -2.7183,-6.87969 -8.33276,-8.87352 z m 4.31421,7.47385 c 0.0673,0.004 0.13596,0.0159 0.19828,0.0357 0.22161,0.069 0.44478,0.25739 0.40319,0.39091 -0.0416,0.13349 -0.33222,0.16154 -0.55383,0.0925 -0.22162,-0.0691 -0.45472,-0.26043 -0.41311,-0.39393 0.0299,-0.096 0.19354,-0.13591 0.36548,-0.12516 z m 1.67972,9.64008 c -0.0262,-0.002 -0.0499,-4.1e-4 -0.0771,-0.002 -0.0652,-0.004 -0.0842,0.028 -0.064,0.0943 1.37092,2.95546 0.70273,7.87193 -2.6327,6.21438 -1.70833,-0.84897 -0.36606,-3.23139 -0.60982,-3.45023 -0.23229,-0.20234 -0.79016,-0.39502 -0.95441,-0.42844 -0.51998,-0.10578 -0.88362,0.69518 -0.91206,2.07996 -0.0809,3.85665 3.34586,4.7342 5.33808,4.1685 2.841,-0.82391 3.53729,-2.77425 3.77765,-6.15427 l 0.0799,-1.12387 -1.28806,-0.36329 c -0.7083,-0.19978 -1.68645,-0.58133 -2.17388,-0.84783 -0.30071,-0.1644 -0.40459,-0.18468 -0.48358,-0.18752 z"
         sodipodi:nodetypes="ccccsssssssccccssccsccccccscccscssssscccscsccscsscc" />
      <g
         id="g5955"
         transform="translate(0,-6.2671308)">
        <path
           d="m 129.46443,165.84682 h 2.80963 q 0.95039,0 1.44896,0.14542 0.66995,0.19735 1.14774,0.70111 0.4778,0.50376 0.72708,1.23603 0.24928,0.72708 0.24928,1.79692 0,0.94 -0.2337,1.62034 -0.28564,0.83095 -0.81536,1.34509 -0.3999,0.38951 -1.08023,0.60763 -0.50896,0.161 -1.36068,0.161 h -2.89272 z m 1.53724,1.28797 v 5.0428 h 1.14775 q 0.64398,0 0.92962,-0.0727 0.37392,-0.0935 0.61801,-0.3168 0.24929,-0.22332 0.40509,-0.73227 0.1558,-0.51415 0.1558,-1.39703 0,-0.88288 -0.1558,-1.35548 -0.1558,-0.4726 -0.43625,-0.73746 -0.28044,-0.26486 -0.71149,-0.35835 -0.322,-0.0727 -1.262,-0.0727 z"
           id="path5919"
           style="font-weight:bold;font-size:10.6361px;line-height:1.25;font-family:Arial;-inkscape-font-specification:'Arial, Bold';letter-spacing:1.43368px;fill:#333333;stroke-width:1.3295" />
        <path
           d="m 139.97099,173.46036 h -1.45935 v -5.5154 h 1.35548 v 0.7842 q 0.34796,-0.55569 0.62321,-0.73227 0.28044,-0.17657 0.6336,-0.17657 0.49856,0 0.96078,0.27525 l -0.45183,1.27238 q -0.36873,-0.23889 -0.68553,-0.23889 -0.30641,0 -0.51934,0.17138 -0.21293,0.16619 -0.33757,0.60763 -0.11945,0.44144 -0.11945,1.84885 z"
           id="path5921"
           style="font-weight:bold;font-size:10.6361px;line-height:1.25;font-family:Arial;-inkscape-font-specification:'Arial, Bold';letter-spacing:1.43368px;fill:#333333;stroke-width:1.3295" />
        <path
           d="m 144.14679,167.19711 v -1.35029 h 1.45935 v 1.35029 z m 0,6.26325 v -5.5154 h 1.45935 v 5.5154 z"
           id="path5923"
           style="font-weight:bold;font-size:10.6361px;line-height:1.25;font-family:Arial;-inkscape-font-specification:'Arial, Bold';letter-spacing:1.43368px;fill:#333333;stroke-width:1.3295" />
        <path
           d="m 150.05199,173.46036 -2.22278,-5.5154 h 1.53206 l 1.03868,2.81483 0.30122,0.94 q 0.11945,-0.35834 0.15061,-0.4726 0.0727,-0.2337 0.1558,-0.4674 l 1.04907,-2.81483 h 1.50089 l -2.19161,5.5154 z"
           id="path5925"
           style="font-weight:bold;font-size:10.6361px;line-height:1.25;font-family:Arial;-inkscape-font-specification:'Arial, Bold';letter-spacing:1.43368px;fill:#333333;stroke-width:1.3295" />
        <path
           d="m 159.07844,171.70499 1.45415,0.24409 q -0.28044,0.79978 -0.88807,1.22045 -0.60244,0.41547 -1.51128,0.41547 -1.43858,0 -2.1293,-0.94001 -0.54531,-0.75304 -0.54531,-1.90078 0,-1.37106 0.71669,-2.14488 0.71669,-0.77901 1.8125,-0.77901 1.23084,0 1.94234,0.81536 0.71149,0.81017 0.68033,2.48764 h -3.65616 q 0.0156,0.64918 0.35315,1.01272 0.33758,0.35834 0.84134,0.35834 0.34276,0 0.57646,-0.18696 0.23371,-0.18696 0.35316,-0.60243 z m 0.0831,-1.47493 q -0.0156,-0.6336 -0.32718,-0.96078 -0.31161,-0.33238 -0.75824,-0.33238 -0.47779,0 -0.7894,0.34796 -0.3116,0.34796 -0.30641,0.9452 z"
           id="path5927"
           style="font-weight:bold;font-size:10.6361px;line-height:1.25;font-family:Arial;-inkscape-font-specification:'Arial, Bold';letter-spacing:1.43368px;fill:#333333;stroke-width:1.3295" />
        <path
           d="m 168.71281,173.46036 -1.8177,-7.61354 h 1.57361 l 1.14774,5.22976 1.39183,-5.22976 h 1.82808 l 1.33471,5.31805 1.16852,-5.31805 h 1.54763 l -1.84885,7.61354 h -1.63073 l -1.51648,-5.69198 -1.51128,5.69198 z"
           id="path5929"
           style="font-weight:bold;font-size:10.6361px;line-height:1.25;font-family:Arial;-inkscape-font-specification:'Arial, Bold';letter-spacing:1.43368px;fill:#333333;stroke-width:1.3295" />
        <path
           d="m 179.00125,167.19711 v -1.35029 h 1.45934 v 1.35029 z m 0,6.26325 v -5.5154 h 1.45934 v 5.5154 z"
           id="path5931"
           style="font-weight:bold;font-size:10.6361px;line-height:1.25;font-family:Arial;-inkscape-font-specification:'Arial, Bold';letter-spacing:1.43368px;fill:#333333;stroke-width:1.3295" />
        <path
           d="m 185.91917,167.94496 v 1.16332 h -0.99714 v 2.22278 q 0,0.67514 0.026,0.7894 0.0312,0.10906 0.12983,0.18177 0.10387,0.0727 0.24929,0.0727 0.20254,0 0.58685,-0.14023 l 0.12464,1.13217 q -0.50895,0.21812 -1.15293,0.21812 -0.3947,0 -0.7115,-0.12984 -0.3168,-0.13502 -0.46741,-0.34276 -0.14541,-0.21293 -0.20254,-0.57128 -0.0467,-0.25447 -0.0467,-1.02829 v -2.40455 h -0.66995 v -1.16332 h 0.66995 v -1.09581 l 1.46454,-0.85172 v 1.94753 z"
           id="path5933"
           style="font-weight:bold;font-size:10.6361px;line-height:1.25;font-family:Arial;-inkscape-font-specification:'Arial, Bold';letter-spacing:1.43368px;fill:#333333;stroke-width:1.3295" />
        <path
           d="m 189.81972,165.84682 v 2.79925 q 0.7063,-0.82575 1.68785,-0.82575 0.50376,0 0.90885,0.18696 0.40509,0.18696 0.60763,0.47779 0.20774,0.29083 0.28044,0.64399 0.0779,0.35315 0.0779,1.0958 v 3.2355 h -1.45934 v -2.9135 q 0,-0.8673 -0.0831,-1.10101 -0.0831,-0.2337 -0.29602,-0.36873 -0.20774,-0.14022 -0.52454,-0.14022 -0.36354,0 -0.64917,0.17658 -0.28564,0.17657 -0.42067,0.53492 -0.12983,0.35315 -0.12983,1.04906 v 2.7629 h -1.45935 v -7.61354 z"
           id="path5935"
           style="font-weight:bold;font-size:10.6361px;line-height:1.25;font-family:Arial;-inkscape-font-specification:'Arial, Bold';letter-spacing:1.43368px;fill:#333333;stroke-width:1.3295" />
        <path
           d="m 200.64857,173.46036 v -7.61354 h 1.53725 v 7.61354 z"
           id="path5937"
           style="font-weight:bold;font-size:10.6361px;line-height:1.25;font-family:Arial;-inkscape-font-specification:'Arial, Bold';letter-spacing:1.43368px;fill:#333333;stroke-width:1.3295" />
        <path
           d="m 210.09049,173.46036 h -1.45935 v -2.81483 q 0,-0.89327 -0.0935,-1.15294 -0.0935,-0.26486 -0.30641,-0.41028 -0.20774,-0.14541 -0.50376,-0.14541 -0.37912,0 -0.68034,0.20774 -0.30122,0.20773 -0.41547,0.5505 -0.10906,0.34276 -0.10906,1.26719 v 2.49803 h -1.45935 v -5.5154 h 1.35548 v 0.81017 q 0.72188,-0.93481 1.81769,-0.93481 0.48299,0 0.88288,0.17657 0.39989,0.17138 0.60244,0.44144 0.20773,0.27006 0.28564,0.61282 0.0831,0.34277 0.0831,0.98156 z"
           id="path5939"
           style="font-weight:bold;font-size:10.6361px;line-height:1.25;font-family:Arial;-inkscape-font-specification:'Arial, Bold';letter-spacing:1.43368px;fill:#333333;stroke-width:1.3295" />
        <path
           d="m 212.49014,171.88676 1.46454,-0.22332 q 0.0935,0.42586 0.37912,0.64917 0.28564,0.21813 0.79979,0.21813 0.56608,0 0.85172,-0.20774 0.19215,-0.14541 0.19215,-0.3895 0,-0.16619 -0.10386,-0.27525 -0.10907,-0.10387 -0.48819,-0.19216 -1.76575,-0.38951 -2.23835,-0.7115 -0.65437,-0.44663 -0.65437,-1.24122 0,-0.71669 0.56608,-1.20487 0.56608,-0.48818 1.75537,-0.48818 1.13216,0 1.68266,0.36873 0.55051,0.36873 0.75824,1.09061 l -1.37625,0.25448 q -0.0883,-0.32199 -0.33757,-0.49337 -0.24409,-0.17139 -0.70111,-0.17139 -0.57647,0 -0.82575,0.161 -0.16619,0.11426 -0.16619,0.29602 0,0.15581 0.14541,0.26487 0.19735,0.14541 1.36067,0.41028 1.16852,0.26486 1.63073,0.64917 0.45702,0.38951 0.45702,1.08543 0,0.75823 -0.63359,1.30354 -0.6336,0.54531 -1.87482,0.54531 -1.12697,0 -1.78653,-0.45702 -0.65437,-0.45702 -0.85692,-1.24122 z"
           id="path5941"
           style="font-weight:bold;font-size:10.6361px;line-height:1.25;font-family:Arial;-inkscape-font-specification:'Arial, Bold';letter-spacing:1.43368px;fill:#333333;stroke-width:1.3295" />
        <path
           d="m 223.98345,173.46036 v -0.82575 q -0.30122,0.44144 -0.79459,0.69591 -0.48818,0.25448 -1.03349,0.25448 -0.55569,0 -0.99713,-0.24409 -0.44144,-0.24409 -0.63879,-0.68553 -0.19735,-0.44144 -0.19735,-1.22045 v -3.48997 h 1.45935 v 2.53438 q 0,1.16332 0.0779,1.42819 0.0831,0.25967 0.29602,0.41547 0.21293,0.15061 0.54012,0.15061 0.37392,0 0.66995,-0.20254 0.29602,-0.20774 0.40508,-0.50896 0.10906,-0.30641 0.10906,-1.4905 v -2.32665 h 1.45935 v 5.5154 z"
           id="path5943"
           style="font-weight:bold;font-size:10.6361px;line-height:1.25;font-family:Arial;-inkscape-font-specification:'Arial, Bold';letter-spacing:1.43368px;fill:#333333;stroke-width:1.3295" />
        <path
           d="m 229.68092,173.46036 h -1.45935 v -5.5154 h 1.35548 v 0.7842 q 0.34796,-0.55569 0.62321,-0.73227 0.28044,-0.17657 0.6336,-0.17657 0.49856,0 0.96078,0.27525 l -0.45183,1.27238 q -0.36873,-0.23889 -0.68553,-0.23889 -0.30641,0 -0.51934,0.17138 -0.21293,0.16619 -0.33757,0.60763 -0.11945,0.44144 -0.11945,1.84885 z"
           id="path5945"
           style="font-weight:bold;font-size:10.6361px;line-height:1.25;font-family:Arial;-inkscape-font-specification:'Arial, Bold';letter-spacing:1.43368px;fill:#333333;stroke-width:1.3295" />
        <path
           d="m 234.94733,169.62762 -1.32432,-0.23889 q 0.22332,-0.79979 0.76863,-1.1841 0.5453,-0.38431 1.62034,-0.38431 0.97636,0 1.45415,0.2337 0.4778,0.22851 0.66995,0.58685 0.19735,0.35316 0.19735,1.30355 l -0.0156,1.70344 q 0,0.72708 0.0675,1.07503 0.0727,0.34277 0.26486,0.73747 h -1.44377 q -0.0571,-0.14542 -0.14022,-0.43106 -0.0363,-0.12983 -0.0519,-0.17138 -0.37393,0.36354 -0.79979,0.54531 -0.42586,0.18177 -0.90884,0.18177 -0.85172,0 -1.3451,-0.46221 -0.48818,-0.46222 -0.48818,-1.16852 0,-0.46741 0.22332,-0.83095 0.22332,-0.36873 0.62321,-0.56088 0.40508,-0.19735 1.16332,-0.34277 1.0231,-0.19216 1.4178,-0.35834 v -0.14542 q 0,-0.42067 -0.20773,-0.59724 -0.20774,-0.18177 -0.78421,-0.18177 -0.3895,0 -0.60763,0.1558 -0.21812,0.15061 -0.35315,0.53492 z m 1.95272,1.1841 q -0.28044,0.0935 -0.88807,0.22332 -0.60763,0.12983 -0.79459,0.25447 -0.28564,0.20255 -0.28564,0.51415 0,0.30641 0.22851,0.52973 0.22851,0.22331 0.58166,0.22331 0.3947,0 0.75305,-0.25967 0.26486,-0.19735 0.34796,-0.48298 0.0571,-0.18697 0.0571,-0.7115 z"
           id="path5947"
           style="font-weight:bold;font-size:10.6361px;line-height:1.25;font-family:Arial;-inkscape-font-specification:'Arial, Bold';letter-spacing:1.43368px;fill:#333333;stroke-width:1.3295" />
        <path
           d="m 246.22252,173.46036 h -1.45934 v -2.81483 q 0,-0.89327 -0.0935,-1.15294 -0.0935,-0.26486 -0.30641,-0.41028 -0.20773,-0.14541 -0.50376,-0.14541 -0.37912,0 -0.68033,0.20774 -0.30122,0.20773 -0.41548,0.5505 -0.10906,0.34276 -0.10906,1.26719 v 2.49803 h -1.45935 v -5.5154 h 1.35548 v 0.81017 q 0.72189,-0.93481 1.8177,-0.93481 0.48298,0 0.88288,0.17657 0.39989,0.17138 0.60243,0.44144 0.20774,0.27006 0.28564,0.61282 0.0831,0.34277 0.0831,0.98156 z"
           id="path5949"
           style="font-weight:bold;font-size:10.6361px;line-height:1.25;font-family:Arial;-inkscape-font-specification:'Arial, Bold';letter-spacing:1.43368px;fill:#333333;stroke-width:1.3295" />
        <path
           d="m 253.94542,169.57569 -1.43857,0.25967 q -0.0727,-0.43105 -0.33238,-0.64918 -0.25448,-0.21812 -0.66476,-0.21812 -0.54531,0 -0.87249,0.37912 -0.32199,0.37392 -0.32199,1.2568 0,0.98156 0.32718,1.38664 0.33238,0.40509 0.88808,0.40509 0.41547,0 0.68033,-0.2337 0.26487,-0.2389 0.37393,-0.81537 l 1.43338,0.24409 q -0.22332,0.98675 -0.85691,1.49051 -0.6336,0.50376 -1.69825,0.50376 -1.21006,0 -1.93195,-0.76343 -0.71669,-0.76343 -0.71669,-2.11372 0,-1.36586 0.72189,-2.1241 0.72188,-0.76343 1.95272,-0.76343 1.00752,0 1.59957,0.43624 0.59724,0.43106 0.85691,1.31913 z"
           id="path5951"
           style="font-weight:bold;font-size:10.6361px;line-height:1.25;font-family:Arial;-inkscape-font-specification:'Arial, Bold';letter-spacing:1.43368px;fill:#333333;stroke-width:1.3295" />
        <path
           d="m 259.67924,171.70499 1.45415,0.24409 q -0.28044,0.79978 -0.88807,1.22045 -0.60243,0.41547 -1.51128,0.41547 -1.43857,0 -2.1293,-0.94001 -0.54531,-0.75304 -0.54531,-1.90078 0,-1.37106 0.71669,-2.14488 0.71669,-0.77901 1.8125,-0.77901 1.23084,0 1.94234,0.81536 0.7115,0.81017 0.68034,2.48764 h -3.65616 q 0.0156,0.64918 0.35315,1.01272 0.33757,0.35834 0.84133,0.35834 0.34276,0 0.57647,-0.18696 0.2337,-0.18696 0.35315,-0.60243 z m 0.0831,-1.47493 q -0.0156,-0.6336 -0.32718,-0.96078 -0.3116,-0.33238 -0.75824,-0.33238 -0.47779,0 -0.7894,0.34796 -0.3116,0.34796 -0.30641,0.9452 z"
           id="path5953"
           style="font-weight:bold;font-size:10.6361px;line-height:1.25;font-family:Arial;-inkscape-font-specification:'Arial, Bold';letter-spacing:1.43368px;fill:#333333;stroke-width:1.3295" />
      </g>
    </g>
    <g
       id="g6101"
       transform="matrix(3.6730612,0,0,3.6730612,825.07021,356.66395)"
       inkscape:export-filename="C:\1- Works\Clients\InnsDrive\final\InssDrive Logo.png"
       inkscape:export-xdpi="90"
       inkscape:export-ydpi="90">
      <g
         id="g6047"
         style="fill:#f16320;fill-opacity:1"
         transform="matrix(1.1608914,0,0,1.1608914,-141.83232,-40.96246)">
        <path
           d="m 143.13636,141.30927 h 7.62615 v 26.96113 h -7.62615 z"
           id="path6039"
           style="font-weight:800;font-size:38.5159px;line-height:1.25;font-family:Montserrat;-inkscape-font-specification:'Montserrat, Ultra-Bold';letter-spacing:2.13452px;fill:#f16320;fill-opacity:1;stroke-width:4.81448" />
        <path
           d="m 171.57727,147.04814 q 3.8901,0 6.23957,2.31095 2.38799,2.31096 2.38799,6.97138 v 11.93993 h -7.31802 v -10.74594 q 0,-4.27526 -3.42792,-4.27526 -1.88728,0 -3.04275,1.23251 -1.11697,1.23251 -1.11697,3.69753 v 10.09116 h -7.31802 v -20.87562 h 6.97138 v 2.27244 q 1.23251,-1.27102 2.92721,-1.92579 1.6947,-0.69329 3.69753,-0.69329 z"
           id="path6041"
           style="font-weight:800;font-size:38.5159px;line-height:1.25;font-family:Montserrat;-inkscape-font-specification:'Montserrat, Ultra-Bold';letter-spacing:2.13452px;fill:#f16320;fill-opacity:1;stroke-width:4.81448" />
        <path
           d="m 194.51034,168.61704 q -2.61908,0 -5.16113,-0.57773 -2.54205,-0.61626 -4.08269,-1.57916 l 2.19541,-5.00706 q 1.42509,0.88586 3.3894,1.42509 1.96431,0.5007 3.89011,0.5007 1.77173,0 2.50353,-0.34664 0.77032,-0.38516 0.77032,-1.07845 0,-0.69328 -0.92438,-0.96289 -0.88587,-0.30813 -2.85018,-0.57774 -2.50353,-0.30813 -4.27527,-0.80884 -1.73321,-0.5007 -3.00424,-1.84876 -1.27102,-1.34806 -1.27102,-3.77456 0,-2.00282 1.19399,-3.54346 1.194,-1.57915 3.46643,-2.46502 2.31096,-0.92438 5.50778,-0.92438 2.27244,0 4.50636,0.46219 2.23392,0.46219 3.73604,1.30954 l -2.19541,4.96855 q -2.77314,-1.54063 -6.00848,-1.54063 -1.73321,0 -2.54205,0.42367 -0.80883,0.38516 -0.80883,1.03993 0,0.7318 0.88587,1.03993 0.88586,0.26961 2.9272,0.57774 2.58057,0.38516 4.27527,0.88586 1.6947,0.50071 2.92721,1.84877 1.27102,1.30954 1.27102,3.69752 0,1.96431 -1.19399,3.54347 -1.19399,1.54063 -3.54346,2.4265 -2.31096,0.88586 -5.58481,0.88586 z"
           id="path6043"
           style="font-weight:800;font-size:38.5159px;line-height:1.25;font-family:Montserrat;-inkscape-font-specification:'Montserrat, Ultra-Bold';letter-spacing:2.13452px;fill:#f16320;fill-opacity:1;stroke-width:4.81448" />
        <path
           d="m 217.71309,168.61704 q -2.61908,0 -5.16113,-0.57773 -2.54205,-0.61626 -4.08269,-1.57916 l 2.19541,-5.00706 q 1.42509,0.88586 3.3894,1.42509 1.96431,0.5007 3.8901,0.5007 1.77173,0 2.50354,-0.34664 0.77031,-0.38516 0.77031,-1.07845 0,-0.69328 -0.92438,-0.96289 -0.88586,-0.30813 -2.85017,-0.57774 -2.50354,-0.30813 -4.27527,-0.80884 -1.73321,-0.5007 -3.00424,-1.84876 -1.27102,-1.34806 -1.27102,-3.77456 0,-2.00282 1.19399,-3.54346 1.19399,-1.57915 3.46643,-2.46502 2.31095,-0.92438 5.50777,-0.92438 2.27244,0 4.50636,0.46219 2.23393,0.46219 3.73605,1.30954 l -2.19541,4.96855 q -2.77314,-1.54063 -6.00848,-1.54063 -1.73322,0 -2.54205,0.42367 -0.80883,0.38516 -0.80883,1.03993 0,0.7318 0.88586,1.03993 0.88587,0.26961 2.92721,0.57774 2.58057,0.38516 4.27527,0.88586 1.6947,0.50071 2.9272,1.84877 1.27103,1.30954 1.27103,3.69752 0,1.96431 -1.19399,3.54347 -1.194,1.54063 -3.54347,2.4265 -2.31095,0.88586 -5.5848,0.88586 z"
           id="path6045"
           style="font-weight:800;font-size:38.5159px;line-height:1.25;font-family:Montserrat;-inkscape-font-specification:'Montserrat, Ultra-Bold';letter-spacing:2.13452px;fill:#f16320;fill-opacity:1;stroke-width:4.81448" />
      </g>
      <g
         id="g6059"
         style="fill:#00508f;fill-opacity:1"
         transform="matrix(0.78524953,0,0,0.78524953,-56.578385,24.415343)">
        <path
           d="m 236.88929,125.65039 h 18.84742 c 4.36547,0 8.23744,0.81615 11.61593,2.44845 3.37849,1.63231 5.99777,3.94791 7.85784,6.94679 1.86007,2.99889 2.79011,6.51024 2.79011,10.53407 0,4.02381 -0.93004,7.53516 -2.79011,10.53405 -1.86007,2.99888 -4.47935,5.31448 -7.85784,6.94679 -3.37849,1.6323 -7.25046,2.44845 -11.61593,2.44845 h -18.84742 z"
           id="path6049"
           style="font-weight:800;font-size:38.5159px;line-height:1.25;font-family:Montserrat;-inkscape-font-specification:'Montserrat, Ultra-Bold';letter-spacing:2.13452px;fill:#00508f;fill-opacity:1;stroke-width:7.1176"
           sodipodi:nodetypes="cssssssscc" />
        <path
           d="m 296.87188,138.34821 q 1.6513,-2.10681 4.27057,-3.13176 2.67621,-1.08187 6.09267,-1.08187 v 9.73689 q -1.48047,-0.17083 -2.44846,-0.17083 -3.4734,0 -5.46632,1.87906 -1.93598,1.87904 -1.93598,5.75102 v 14.17827 H 286.5656 v -30.86195 h 10.30628 z"
           id="path6051"
           style="font-weight:800;font-size:38.5159px;line-height:1.25;font-family:Montserrat;-inkscape-font-specification:'Montserrat, Ultra-Bold';letter-spacing:2.13452px;fill:#00508f;fill-opacity:1;stroke-width:7.1176" />
        <path
           d="m 314.83212,134.64704 h 10.81876 v 30.86195 h -10.81876 z m 5.40938,-3.41644 q -2.96092,0 -4.78303,-1.65128 -1.8221,-1.65129 -1.8221,-4.09975 0,-2.44845 1.8221,-4.09974 1.82211,-1.65128 4.78303,-1.65128 2.96093,0 4.78304,1.59434 1.8221,1.5374 1.8221,3.98587 0,2.56233 -1.8221,4.27056 -1.82211,1.65128 -4.78304,1.65128 z"
           id="path6053"
           style="font-weight:800;font-size:38.5159px;line-height:1.25;font-family:Montserrat;-inkscape-font-specification:'Montserrat, Ultra-Bold';letter-spacing:2.13452px;fill:#00508f;fill-opacity:1;stroke-width:7.1176" />
        <path
           d="m 368.32344,134.64704 -12.75476,30.86195 h -11.1604 l -12.69781,-30.86195 h 11.10346 l 7.40232,18.84744 7.8009,-18.84744 z"
           id="path6055"
           style="font-weight:800;font-size:38.5159px;line-height:1.25;font-family:Montserrat;-inkscape-font-specification:'Montserrat, Ultra-Bold';letter-spacing:2.13452px;fill:#00508f;fill-opacity:1;stroke-width:7.1176" />
        <path
           d="m 404.96036,150.13496 q 0,0.11384 -0.17083,2.67623 h -22.4347 q 0.68329,2.3915 2.61929,3.70115 1.99292,1.2527 4.95385,1.2527 2.22069,0 3.81503,-0.62636 1.65129,-0.62634 3.30258,-2.04987 l 5.69408,5.92185 q -4.49833,5.01079 -13.15334,5.01079 -5.40938,0 -9.50912,-2.04987 -4.09975,-2.04986 -6.37737,-5.69408 -2.2207,-3.64422 -2.2207,-8.25642 0,-4.55528 2.16375,-8.14255 2.22069,-3.6442 6.09267,-5.69408 3.87198,-2.04987 8.71196,-2.04987 4.6122,0 8.3703,1.93599 3.75809,1.87906 5.92185,5.52326 2.2207,3.58727 2.2207,8.54113 z m -16.45592,-8.31336 q -2.5054,0 -4.21363,1.42351 -1.65128,1.42353 -2.10679,3.87199 h 12.64086 q -0.45553,-2.44846 -2.16376,-3.87199 -1.65128,-1.42351 -4.15668,-1.42351 z"
           id="path6057"
           style="font-weight:800;font-size:38.5159px;line-height:1.25;font-family:Montserrat;-inkscape-font-specification:'Montserrat, Ultra-Bold';letter-spacing:2.13452px;fill:#00508f;fill-opacity:1;stroke-width:7.1176" />
      </g>
      <path
         id="path6061"
         style="fill:#ffffff;fill-opacity:1;stroke:none;stroke-width:0.163827px;stroke-linecap:butt;stroke-linejoin:miter;stroke-opacity:1"
         d="m 143.4888,126.0297 c -0.96721,-0.0501 -1.77636,-0.24236 -2.6583,1.49175 l -0.002,-4.9e-4 c 0.005,0.0369 -0.29313,0.002 -1.00973,-0.0921 -2.42882,-0.31729 -5.18003,0.19961 -6.58221,1.23697 -0.92421,0.68375 -1.37012,1.64289 -1.34373,2.89064 0.0969,4.58471 4.85962,9.95471 8.09605,9.12841 0.64279,-0.16411 0.88064,-0.35328 1.06202,-1.29251 0.18146,-0.93962 0.43797,-1.71598 0.62494,-4.1708 0.18254,-2.3965 0.27275,-3.0097 0.4218,-2.86717 0.35133,0.33599 0.4052,1.68673 0.19564,3.21153 -0.16718,1.21635 -0.16334,1.66254 0.0204,2.27 0.4279,1.41416 1.72376,2.19928 3.30424,2.00194 l 0.82914,-0.10347 0.79919,0.82 c 1.06244,1.09035 2.2628,1.9212 3.68384,2.54927 1.6428,0.7261 4.03669,0.91431 5.85296,0.46045 l 1.25415,-0.31341 -1.75734,-0.24305 c -2.0298,-0.28053 -3.7443,-0.88012 -4.70279,-1.64516 -0.10736,-0.0857 -0.18377,-0.15712 -0.272,-0.23426 0.69085,0.2648 1.36301,0.43315 1.99951,0.53232 l 0.006,0.003 -2.2e-4,-0.002 c 2.7767,0.43106 4.87307,-0.45965 4.87307,-0.45965 -2.57751,-0.26885 -4.15875,-0.70178 -5.11115,-1.08526 -0.0425,-0.27634 -0.0598,-0.38702 -0.10644,-0.69168 -0.38162,-2.49082 -0.68141,-3.19591 -1.14332,-4.52174 -0.89583,-2.17452 -2.7183,-6.87969 -8.33276,-8.87352 z m 4.31421,7.47385 c 0.0673,0.004 0.13596,0.0159 0.19828,0.0357 0.22161,0.069 0.44478,0.25739 0.40319,0.39091 -0.0416,0.13349 -0.33222,0.16154 -0.55383,0.0925 -0.22162,-0.0691 -0.45472,-0.26043 -0.41311,-0.39393 0.0299,-0.096 0.19354,-0.13591 0.36548,-0.12516 z m 1.67972,9.64008 c -0.0262,-0.002 -0.0499,-4.1e-4 -0.0771,-0.002 -0.0652,-0.004 -0.0842,0.028 -0.064,0.0943 1.37092,2.95546 0.70273,7.87193 -2.6327,6.21438 -1.70833,-0.84897 -0.36606,-3.23139 -0.60982,-3.45023 -0.23229,-0.20234 -0.79016,-0.39502 -0.95441,-0.42844 -0.51998,-0.10578 -0.88362,0.69518 -0.91206,2.07996 -0.0809,3.85665 3.34586,4.7342 5.33808,4.1685 2.841,-0.82391 3.53729,-2.77425 3.77765,-6.15427 l 0.0799,-1.12387 -1.28806,-0.36329 c -0.7083,-0.19978 -1.68645,-0.58133 -2.17388,-0.84783 -0.30071,-0.1644 -0.40459,-0.18468 -0.48358,-0.18752 z"
         sodipodi:nodetypes="ccccsssssssccccssccsccccccscccscssssscccscsccscsscc" />
      <g
         id="g6099"
         transform="translate(0,-6.2671308)">
        <path
           d="m 129.46443,165.84682 h 2.80963 q 0.95039,0 1.44896,0.14542 0.66995,0.19735 1.14774,0.70111 0.4778,0.50376 0.72708,1.23603 0.24928,0.72708 0.24928,1.79692 0,0.94 -0.2337,1.62034 -0.28564,0.83095 -0.81536,1.34509 -0.3999,0.38951 -1.08023,0.60763 -0.50896,0.161 -1.36068,0.161 h -2.89272 z m 1.53724,1.28797 v 5.0428 h 1.14775 q 0.64398,0 0.92962,-0.0727 0.37392,-0.0935 0.61801,-0.3168 0.24929,-0.22332 0.40509,-0.73227 0.1558,-0.51415 0.1558,-1.39703 0,-0.88288 -0.1558,-1.35548 -0.1558,-0.4726 -0.43625,-0.73746 -0.28044,-0.26486 -0.71149,-0.35835 -0.322,-0.0727 -1.262,-0.0727 z"
           id="path6063"
           style="font-weight:bold;font-size:10.6361px;line-height:1.25;font-family:Arial;-inkscape-font-specification:'Arial, Bold';letter-spacing:1.43368px;fill:#333333;stroke-width:1.3295" />
        <path
           d="m 139.97099,173.46036 h -1.45935 v -5.5154 h 1.35548 v 0.7842 q 0.34796,-0.55569 0.62321,-0.73227 0.28044,-0.17657 0.6336,-0.17657 0.49856,0 0.96078,0.27525 l -0.45183,1.27238 q -0.36873,-0.23889 -0.68553,-0.23889 -0.30641,0 -0.51934,0.17138 -0.21293,0.16619 -0.33757,0.60763 -0.11945,0.44144 -0.11945,1.84885 z"
           id="path6065"
           style="font-weight:bold;font-size:10.6361px;line-height:1.25;font-family:Arial;-inkscape-font-specification:'Arial, Bold';letter-spacing:1.43368px;fill:#333333;stroke-width:1.3295" />
        <path
           d="m 144.14679,167.19711 v -1.35029 h 1.45935 v 1.35029 z m 0,6.26325 v -5.5154 h 1.45935 v 5.5154 z"
           id="path6067"
           style="font-weight:bold;font-size:10.6361px;line-height:1.25;font-family:Arial;-inkscape-font-specification:'Arial, Bold';letter-spacing:1.43368px;fill:#333333;stroke-width:1.3295" />
        <path
           d="m 150.05199,173.46036 -2.22278,-5.5154 h 1.53206 l 1.03868,2.81483 0.30122,0.94 q 0.11945,-0.35834 0.15061,-0.4726 0.0727,-0.2337 0.1558,-0.4674 l 1.04907,-2.81483 h 1.50089 l -2.19161,5.5154 z"
           id="path6069"
           style="font-weight:bold;font-size:10.6361px;line-height:1.25;font-family:Arial;-inkscape-font-specification:'Arial, Bold';letter-spacing:1.43368px;fill:#333333;stroke-width:1.3295" />
        <path
           d="m 159.07844,171.70499 1.45415,0.24409 q -0.28044,0.79978 -0.88807,1.22045 -0.60244,0.41547 -1.51128,0.41547 -1.43858,0 -2.1293,-0.94001 -0.54531,-0.75304 -0.54531,-1.90078 0,-1.37106 0.71669,-2.14488 0.71669,-0.77901 1.8125,-0.77901 1.23084,0 1.94234,0.81536 0.71149,0.81017 0.68033,2.48764 h -3.65616 q 0.0156,0.64918 0.35315,1.01272 0.33758,0.35834 0.84134,0.35834 0.34276,0 0.57646,-0.18696 0.23371,-0.18696 0.35316,-0.60243 z m 0.0831,-1.47493 q -0.0156,-0.6336 -0.32718,-0.96078 -0.31161,-0.33238 -0.75824,-0.33238 -0.47779,0 -0.7894,0.34796 -0.3116,0.34796 -0.30641,0.9452 z"
           id="path6071"
           style="font-weight:bold;font-size:10.6361px;line-height:1.25;font-family:Arial;-inkscape-font-specification:'Arial, Bold';letter-spacing:1.43368px;fill:#333333;stroke-width:1.3295" />
        <path
           d="m 168.71281,173.46036 -1.8177,-7.61354 h 1.57361 l 1.14774,5.22976 1.39183,-5.22976 h 1.82808 l 1.33471,5.31805 1.16852,-5.31805 h 1.54763 l -1.84885,7.61354 h -1.63073 l -1.51648,-5.69198 -1.51128,5.69198 z"
           id="path6073"
           style="font-weight:bold;font-size:10.6361px;line-height:1.25;font-family:Arial;-inkscape-font-specification:'Arial, Bold';letter-spacing:1.43368px;fill:#333333;stroke-width:1.3295" />
        <path
           d="m 179.00125,167.19711 v -1.35029 h 1.45934 v 1.35029 z m 0,6.26325 v -5.5154 h 1.45934 v 5.5154 z"
           id="path6075"
           style="font-weight:bold;font-size:10.6361px;line-height:1.25;font-family:Arial;-inkscape-font-specification:'Arial, Bold';letter-spacing:1.43368px;fill:#333333;stroke-width:1.3295" />
        <path
           d="m 185.91917,167.94496 v 1.16332 h -0.99714 v 2.22278 q 0,0.67514 0.026,0.7894 0.0312,0.10906 0.12983,0.18177 0.10387,0.0727 0.24929,0.0727 0.20254,0 0.58685,-0.14023 l 0.12464,1.13217 q -0.50895,0.21812 -1.15293,0.21812 -0.3947,0 -0.7115,-0.12984 -0.3168,-0.13502 -0.46741,-0.34276 -0.14541,-0.21293 -0.20254,-0.57128 -0.0467,-0.25447 -0.0467,-1.02829 v -2.40455 h -0.66995 v -1.16332 h 0.66995 v -1.09581 l 1.46454,-0.85172 v 1.94753 z"
           id="path6077"
           style="font-weight:bold;font-size:10.6361px;line-height:1.25;font-family:Arial;-inkscape-font-specification:'Arial, Bold';letter-spacing:1.43368px;fill:#333333;stroke-width:1.3295" />
        <path
           d="m 189.81972,165.84682 v 2.79925 q 0.7063,-0.82575 1.68785,-0.82575 0.50376,0 0.90885,0.18696 0.40509,0.18696 0.60763,0.47779 0.20774,0.29083 0.28044,0.64399 0.0779,0.35315 0.0779,1.0958 v 3.2355 h -1.45934 v -2.9135 q 0,-0.8673 -0.0831,-1.10101 -0.0831,-0.2337 -0.29602,-0.36873 -0.20774,-0.14022 -0.52454,-0.14022 -0.36354,0 -0.64917,0.17658 -0.28564,0.17657 -0.42067,0.53492 -0.12983,0.35315 -0.12983,1.04906 v 2.7629 h -1.45935 v -7.61354 z"
           id="path6079"
           style="font-weight:bold;font-size:10.6361px;line-height:1.25;font-family:Arial;-inkscape-font-specification:'Arial, Bold';letter-spacing:1.43368px;fill:#333333;stroke-width:1.3295" />
        <path
           d="m 200.64857,173.46036 v -7.61354 h 1.53725 v 7.61354 z"
           id="path6081"
           style="font-weight:bold;font-size:10.6361px;line-height:1.25;font-family:Arial;-inkscape-font-specification:'Arial, Bold';letter-spacing:1.43368px;fill:#333333;stroke-width:1.3295" />
        <path
           d="m 210.09049,173.46036 h -1.45935 v -2.81483 q 0,-0.89327 -0.0935,-1.15294 -0.0935,-0.26486 -0.30641,-0.41028 -0.20774,-0.14541 -0.50376,-0.14541 -0.37912,0 -0.68034,0.20774 -0.30122,0.20773 -0.41547,0.5505 -0.10906,0.34276 -0.10906,1.26719 v 2.49803 h -1.45935 v -5.5154 h 1.35548 v 0.81017 q 0.72188,-0.93481 1.81769,-0.93481 0.48299,0 0.88288,0.17657 0.39989,0.17138 0.60244,0.44144 0.20773,0.27006 0.28564,0.61282 0.0831,0.34277 0.0831,0.98156 z"
           id="path6083"
           style="font-weight:bold;font-size:10.6361px;line-height:1.25;font-family:Arial;-inkscape-font-specification:'Arial, Bold';letter-spacing:1.43368px;fill:#333333;stroke-width:1.3295" />
        <path
           d="m 212.49014,171.88676 1.46454,-0.22332 q 0.0935,0.42586 0.37912,0.64917 0.28564,0.21813 0.79979,0.21813 0.56608,0 0.85172,-0.20774 0.19215,-0.14541 0.19215,-0.3895 0,-0.16619 -0.10386,-0.27525 -0.10907,-0.10387 -0.48819,-0.19216 -1.76575,-0.38951 -2.23835,-0.7115 -0.65437,-0.44663 -0.65437,-1.24122 0,-0.71669 0.56608,-1.20487 0.56608,-0.48818 1.75537,-0.48818 1.13216,0 1.68266,0.36873 0.55051,0.36873 0.75824,1.09061 l -1.37625,0.25448 q -0.0883,-0.32199 -0.33757,-0.49337 -0.24409,-0.17139 -0.70111,-0.17139 -0.57647,0 -0.82575,0.161 -0.16619,0.11426 -0.16619,0.29602 0,0.15581 0.14541,0.26487 0.19735,0.14541 1.36067,0.41028 1.16852,0.26486 1.63073,0.64917 0.45702,0.38951 0.45702,1.08543 0,0.75823 -0.63359,1.30354 -0.6336,0.54531 -1.87482,0.54531 -1.12697,0 -1.78653,-0.45702 -0.65437,-0.45702 -0.85692,-1.24122 z"
           id="path6085"
           style="font-weight:bold;font-size:10.6361px;line-height:1.25;font-family:Arial;-inkscape-font-specification:'Arial, Bold';letter-spacing:1.43368px;fill:#333333;stroke-width:1.3295" />
        <path
           d="m 223.98345,173.46036 v -0.82575 q -0.30122,0.44144 -0.79459,0.69591 -0.48818,0.25448 -1.03349,0.25448 -0.55569,0 -0.99713,-0.24409 -0.44144,-0.24409 -0.63879,-0.68553 -0.19735,-0.44144 -0.19735,-1.22045 v -3.48997 h 1.45935 v 2.53438 q 0,1.16332 0.0779,1.42819 0.0831,0.25967 0.29602,0.41547 0.21293,0.15061 0.54012,0.15061 0.37392,0 0.66995,-0.20254 0.29602,-0.20774 0.40508,-0.50896 0.10906,-0.30641 0.10906,-1.4905 v -2.32665 h 1.45935 v 5.5154 z"
           id="path6087"
           style="font-weight:bold;font-size:10.6361px;line-height:1.25;font-family:Arial;-inkscape-font-specification:'Arial, Bold';letter-spacing:1.43368px;fill:#333333;stroke-width:1.3295" />
        <path
           d="m 229.68092,173.46036 h -1.45935 v -5.5154 h 1.35548 v 0.7842 q 0.34796,-0.55569 0.62321,-0.73227 0.28044,-0.17657 0.6336,-0.17657 0.49856,0 0.96078,0.27525 l -0.45183,1.27238 q -0.36873,-0.23889 -0.68553,-0.23889 -0.30641,0 -0.51934,0.17138 -0.21293,0.16619 -0.33757,0.60763 -0.11945,0.44144 -0.11945,1.84885 z"
           id="path6089"
           style="font-weight:bold;font-size:10.6361px;line-height:1.25;font-family:Arial;-inkscape-font-specification:'Arial, Bold';letter-spacing:1.43368px;fill:#333333;stroke-width:1.3295" />
        <path
           d="m 234.94733,169.62762 -1.32432,-0.23889 q 0.22332,-0.79979 0.76863,-1.1841 0.5453,-0.38431 1.62034,-0.38431 0.97636,0 1.45415,0.2337 0.4778,0.22851 0.66995,0.58685 0.19735,0.35316 0.19735,1.30355 l -0.0156,1.70344 q 0,0.72708 0.0675,1.07503 0.0727,0.34277 0.26486,0.73747 h -1.44377 q -0.0571,-0.14542 -0.14022,-0.43106 -0.0363,-0.12983 -0.0519,-0.17138 -0.37393,0.36354 -0.79979,0.54531 -0.42586,0.18177 -0.90884,0.18177 -0.85172,0 -1.3451,-0.46221 -0.48818,-0.46222 -0.48818,-1.16852 0,-0.46741 0.22332,-0.83095 0.22332,-0.36873 0.62321,-0.56088 0.40508,-0.19735 1.16332,-0.34277 1.0231,-0.19216 1.4178,-0.35834 v -0.14542 q 0,-0.42067 -0.20773,-0.59724 -0.20774,-0.18177 -0.78421,-0.18177 -0.3895,0 -0.60763,0.1558 -0.21812,0.15061 -0.35315,0.53492 z m 1.95272,1.1841 q -0.28044,0.0935 -0.88807,0.22332 -0.60763,0.12983 -0.79459,0.25447 -0.28564,0.20255 -0.28564,0.51415 0,0.30641 0.22851,0.52973 0.22851,0.22331 0.58166,0.22331 0.3947,0 0.75305,-0.25967 0.26486,-0.19735 0.34796,-0.48298 0.0571,-0.18697 0.0571,-0.7115 z"
           id="path6091"
           style="font-weight:bold;font-size:10.6361px;line-height:1.25;font-family:Arial;-inkscape-font-specification:'Arial, Bold';letter-spacing:1.43368px;fill:#333333;stroke-width:1.3295" />
        <path
           d="m 246.22252,173.46036 h -1.45934 v -2.81483 q 0,-0.89327 -0.0935,-1.15294 -0.0935,-0.26486 -0.30641,-0.41028 -0.20773,-0.14541 -0.50376,-0.14541 -0.37912,0 -0.68033,0.20774 -0.30122,0.20773 -0.41548,0.5505 -0.10906,0.34276 -0.10906,1.26719 v 2.49803 h -1.45935 v -5.5154 h 1.35548 v 0.81017 q 0.72189,-0.93481 1.8177,-0.93481 0.48298,0 0.88288,0.17657 0.39989,0.17138 0.60243,0.44144 0.20774,0.27006 0.28564,0.61282 0.0831,0.34277 0.0831,0.98156 z"
           id="path6093"
           style="font-weight:bold;font-size:10.6361px;line-height:1.25;font-family:Arial;-inkscape-font-specification:'Arial, Bold';letter-spacing:1.43368px;fill:#333333;stroke-width:1.3295" />
        <path
           d="m 253.94542,169.57569 -1.43857,0.25967 q -0.0727,-0.43105 -0.33238,-0.64918 -0.25448,-0.21812 -0.66476,-0.21812 -0.54531,0 -0.87249,0.37912 -0.32199,0.37392 -0.32199,1.2568 0,0.98156 0.32718,1.38664 0.33238,0.40509 0.88808,0.40509 0.41547,0 0.68033,-0.2337 0.26487,-0.2389 0.37393,-0.81537 l 1.43338,0.24409 q -0.22332,0.98675 -0.85691,1.49051 -0.6336,0.50376 -1.69825,0.50376 -1.21006,0 -1.93195,-0.76343 -0.71669,-0.76343 -0.71669,-2.11372 0,-1.36586 0.72189,-2.1241 0.72188,-0.76343 1.95272,-0.76343 1.00752,0 1.59957,0.43624 0.59724,0.43106 0.85691,1.31913 z"
           id="path6095"
           style="font-weight:bold;font-size:10.6361px;line-height:1.25;font-family:Arial;-inkscape-font-specification:'Arial, Bold';letter-spacing:1.43368px;fill:#333333;stroke-width:1.3295" />
        <path
           d="m 259.67924,171.70499 1.45415,0.24409 q -0.28044,0.79978 -0.88807,1.22045 -0.60243,0.41547 -1.51128,0.41547 -1.43857,0 -2.1293,-0.94001 -0.54531,-0.75304 -0.54531,-1.90078 0,-1.37106 0.71669,-2.14488 0.71669,-0.77901 1.8125,-0.77901 1.23084,0 1.94234,0.81536 0.7115,0.81017 0.68034,2.48764 h -3.65616 q 0.0156,0.64918 0.35315,1.01272 0.33757,0.35834 0.84133,0.35834 0.34276,0 0.57647,-0.18696 0.2337,-0.18696 0.35315,-0.60243 z m 0.0831,-1.47493 q -0.0156,-0.6336 -0.32718,-0.96078 -0.3116,-0.33238 -0.75824,-0.33238 -0.47779,0 -0.7894,0.34796 -0.3116,0.34796 -0.30641,0.9452 z"
           id="path6097"
           style="font-weight:bold;font-size:10.6361px;line-height:1.25;font-family:Arial;-inkscape-font-specification:'Arial, Bold';letter-spacing:1.43368px;fill:#333333;stroke-width:1.3295" />
      </g>
    </g>
  </g>
</svg>
